<svg xmlns="http://www.w3.org/2000/svg" xmlns:xlink="http://www.w3.org/1999/xlink" width="225" zoomAndPan="magnify" viewBox="0 0 168.75 30.000001" height="40" preserveAspectRatio="xMidYMid meet" version="1.0"><defs><g/><clipPath id="c1a326f3e2"><path d="M 2.601562 0 L 165.90625 0 L 165.90625 29.03125 L 2.601562 29.03125 Z M 2.601562 0 " clip-rule="nonzero"/></clipPath><clipPath id="2a548f4113"><path d="M 3.472656 1.214844 L 26.007812 1.214844 L 26.007812 28.160156 L 3.472656 28.160156 Z M 3.472656 1.214844 " clip-rule="nonzero"/></clipPath><clipPath id="4f358de4c9"><path d="M 2.601562 0.34375 L 26.550781 0.34375 L 26.550781 29.023438 L 2.601562 29.023438 Z M 2.601562 0.34375 " clip-rule="nonzero"/></clipPath><clipPath id="756fd23865"><path d="M 44 5 L 53 5 L 53 29 L 44 29 Z M 44 5 " clip-rule="nonzero"/></clipPath><clipPath id="160e781603"><path d="M 51.808594 29.121094 L 40.933594 28.644531 L 42.179688 0.363281 L 53.058594 0.84375 Z M 51.808594 29.121094 " clip-rule="nonzero"/></clipPath><clipPath id="acf5f1b018"><path d="M 51.808594 29.121094 L 40.933594 28.644531 L 42.179688 0.363281 L 53.058594 0.84375 Z M 51.808594 29.121094 " clip-rule="nonzero"/></clipPath><clipPath id="4c18b6e666"><path d="M 44 0 L 50 0 L 50 13 L 44 13 Z M 44 0 " clip-rule="nonzero"/></clipPath><clipPath id="0799411375"><path d="M 51.808594 29.121094 L 40.933594 28.644531 L 42.179688 0.363281 L 53.058594 0.84375 Z M 51.808594 29.121094 " clip-rule="nonzero"/></clipPath><clipPath id="862e4cff6f"><path d="M 51.808594 29.121094 L 40.933594 28.644531 L 42.179688 0.363281 L 53.058594 0.84375 Z M 51.808594 29.121094 " clip-rule="nonzero"/></clipPath><clipPath id="33926af752"><path d="M 41 6 L 50 6 L 50 15 L 41 15 Z M 41 6 " clip-rule="nonzero"/></clipPath><clipPath id="f6ff35afa0"><path d="M 51.808594 29.121094 L 40.933594 28.644531 L 42.179688 0.363281 L 53.058594 0.84375 Z M 51.808594 29.121094 " clip-rule="nonzero"/></clipPath><clipPath id="654317525e"><path d="M 51.808594 29.121094 L 40.933594 28.644531 L 42.179688 0.363281 L 53.058594 0.84375 Z M 51.808594 29.121094 " clip-rule="nonzero"/></clipPath><clipPath id="a680e4661b"><path d="M 45 14 L 47 14 L 47 20 L 45 20 Z M 45 14 " clip-rule="nonzero"/></clipPath><clipPath id="b09d3ff9c0"><path d="M 51.808594 29.121094 L 40.933594 28.644531 L 42.179688 0.363281 L 53.058594 0.84375 Z M 51.808594 29.121094 " clip-rule="nonzero"/></clipPath><clipPath id="bec697d18d"><path d="M 51.808594 29.121094 L 40.933594 28.644531 L 42.179688 0.363281 L 53.058594 0.84375 Z M 51.808594 29.121094 " clip-rule="nonzero"/></clipPath><clipPath id="a9144c26fd"><path d="M 82.980469 16.335938 L 85.882812 16.335938 L 85.882812 19 L 82.980469 19 Z M 82.980469 16.335938 " clip-rule="nonzero"/></clipPath><clipPath id="f52e6fb123"><path d="M 92.785156 16.335938 L 95.6875 16.335938 L 95.6875 19 L 92.785156 19 Z M 92.785156 16.335938 " clip-rule="nonzero"/></clipPath><clipPath id="fb14309575"><path d="M 74.90625 16.335938 L 77.8125 16.335938 L 77.8125 19 L 74.90625 19 Z M 74.90625 16.335938 " clip-rule="nonzero"/></clipPath><clipPath id="b73944cc41"><path d="M 63.445312 15.789062 L 66 15.789062 L 66 18.691406 L 63.445312 18.691406 Z M 63.445312 15.789062 " clip-rule="nonzero"/></clipPath></defs><g clip-path="url(#c1a326f3e2)"><path fill="#ffffff" d="M 2.601562 0 L 165.90625 0 L 165.90625 29.03125 L 2.601562 29.03125 Z M 2.601562 0 " fill-opacity="1" fill-rule="nonzero"/><path fill="#ffffff" d="M 2.601562 0 L 165.90625 0 L 165.90625 29.03125 L 2.601562 29.03125 Z M 2.601562 0 " fill-opacity="1" fill-rule="nonzero"/></g><g clip-path="url(#2a548f4113)"><path fill="#000000" d="M 4.613281 0.351562 C 11.25 0.351562 17.886719 0.351562 24.523438 0.351562 L 26.53125 0.351562 L 26.53125 29.386719 L 2.605469 29.386719 L 2.605469 0.351562 Z M 4.613281 0.738281 C 11.25 0.738281 17.886719 0.738281 24.523438 0.738281 L 26.152344 0.738281 L 26.152344 29 L 2.984375 29 L 2.984375 0.738281 L 4.613281 0.738281 " fill-opacity="1" fill-rule="evenodd"/></g><path fill="#000000" d="M 4.425781 11.203125 L 4.425781 2.214844 C 11.1875 2.214844 17.949219 2.214844 24.710938 2.214844 L 24.710938 27.519531 C 17.949219 27.519531 11.1875 27.519531 4.425781 27.519531 L 4.425781 11.203125 " fill-opacity="1" fill-rule="evenodd"/><path fill="#c6dadb" d="M 17.6875 27.125 L 14.125 16.355469 L 14.066406 27.125 C 15.273438 27.125 16.480469 27.125 17.6875 27.125 " fill-opacity="1" fill-rule="evenodd"/><path fill="#fa9397" d="M 11.082031 27.125 C 11.976562 27.125 12.867188 27.125 13.757812 27.125 L 13.808594 17.53125 L 11.082031 27.125 " fill-opacity="1" fill-rule="evenodd"/><path fill="#95c4be" d="M 10.761719 27.125 L 13.425781 17.742188 L 8.957031 27.125 C 9.558594 27.125 10.160156 27.125 10.761719 27.125 " fill-opacity="1" fill-rule="evenodd"/><path fill="#ffd0a6" d="M 8.613281 27.125 L 13.429688 17.007812 L 4.808594 26.417969 L 4.808594 27.125 C 6.078125 27.125 7.34375 27.125 8.613281 27.125 " fill-opacity="1" fill-rule="evenodd"/><path fill="#fa9397" d="M 4.808594 23.261719 L 4.808594 25.953125 L 14.03125 15.886719 L 13.957031 15.789062 L 4.808594 23.261719 " fill-opacity="1" fill-rule="evenodd"/><path fill="#95c4be" d="M 4.808594 22.855469 L 13.601562 15.671875 L 4.808594 18.59375 Z M 4.808594 22.855469 " fill-opacity="1" fill-rule="evenodd"/><path fill="#ffd0a6" d="M 4.808594 15.421875 L 4.808594 18.257812 L 13.425781 15.394531 Z M 4.808594 15.421875 " fill-opacity="1" fill-rule="evenodd"/><path fill="#c6dadb" d="M 4.808594 11.316406 L 4.808594 15.105469 L 12.972656 15.082031 Z M 4.808594 11.316406 " fill-opacity="1" fill-rule="evenodd"/><path fill="#fa9397" d="M 4.808594 7.484375 L 4.808594 10.96875 L 12.730469 14.621094 Z M 4.808594 7.484375 " fill-opacity="1" fill-rule="evenodd"/><path fill="#fa9397" d="M 4.808594 7.0625 L 12.867188 14.320312 L 4.808594 3.472656 Z M 4.808594 7.0625 " fill-opacity="1" fill-rule="evenodd"/><path fill="#95c4be" d="M 9.082031 2.609375 C 7.65625 2.609375 6.234375 2.609375 4.808594 2.609375 L 4.808594 2.949219 L 13.980469 15.296875 L 9.082031 2.609375 " fill-opacity="1" fill-rule="evenodd"/><path fill="#ffd0a6" d="M 12.128906 2.609375 C 11.222656 2.609375 10.320312 2.609375 9.414062 2.609375 L 14.039062 14.582031 L 12.128906 2.609375 " fill-opacity="1" fill-rule="evenodd"/><path fill="#c6dadb" d="M 12.441406 2.609375 L 14.28125 14.132812 L 14.449219 2.609375 C 13.78125 2.609375 13.109375 2.609375 12.441406 2.609375 " fill-opacity="1" fill-rule="evenodd"/><path fill="#fa9397" d="M 18.238281 2.609375 C 17.078125 2.609375 15.917969 2.609375 14.757812 2.609375 L 14.582031 14.703125 L 14.597656 14.683594 L 18.238281 2.609375 " fill-opacity="1" fill-rule="evenodd"/><path fill="#95c4be" d="M 21.398438 2.609375 C 20.453125 2.609375 19.507812 2.609375 18.5625 2.609375 L 15.40625 13.082031 L 21.398438 2.609375 " fill-opacity="1" fill-rule="evenodd"/><path fill="#ffd0a6" d="M 21.757812 2.609375 L 15.355469 13.796875 L 24.328125 3.277344 L 24.328125 2.609375 C 23.472656 2.609375 22.613281 2.609375 21.757812 2.609375 " fill-opacity="1" fill-rule="evenodd"/><path fill="#c6dadb" d="M 24.328125 8.308594 L 24.328125 3.757812 L 14.574219 15.195312 L 14.574219 15.246094 L 24.328125 8.308594 " fill-opacity="1" fill-rule="evenodd"/><path fill="#fa9397" d="M 24.328125 10.957031 L 24.328125 8.695312 L 15.71875 14.816406 Z M 24.328125 10.957031 " fill-opacity="1" fill-rule="evenodd"/><path fill="#95c4be" d="M 24.328125 11.300781 L 15.652344 15.191406 L 24.328125 13.832031 Z M 24.328125 11.300781 " fill-opacity="1" fill-rule="evenodd"/><path fill="#ffd0a6" d="M 24.328125 17.371094 L 24.328125 14.15625 L 15.242188 15.578125 Z M 24.328125 17.371094 " fill-opacity="1" fill-rule="evenodd"/><path fill="#c6dadb" d="M 24.328125 17.691406 L 15.375 15.925781 L 24.328125 22.34375 Z M 24.328125 17.691406 " fill-opacity="1" fill-rule="evenodd"/><path fill="#fa9397" d="M 24.328125 24.972656 L 24.328125 22.730469 L 14.566406 15.734375 L 14.5625 15.878906 L 24.328125 24.972656 " fill-opacity="1" fill-rule="evenodd"/><path fill="#95c4be" d="M 24.328125 25.402344 L 15.105469 16.808594 L 22.769531 27.125 C 23.289062 27.125 23.808594 27.125 24.328125 27.125 L 24.328125 25.402344 " fill-opacity="1" fill-rule="evenodd"/><path fill="#ffd0a6" d="M 18.011719 27.125 C 19.46875 27.125 20.921875 27.125 22.378906 27.125 L 14.507812 16.53125 L 18.011719 27.125 " fill-opacity="1" fill-rule="evenodd"/><path fill="#000000" d="M 15.460938 21.496094 L 14.222656 18.902344 L 12.382812 18.628906 L 11.160156 16.902344 L 10.328125 14.253906 L 9.214844 14.144531 L 10.238281 12.824219 L 11.589844 12.945312 L 12.378906 13.902344 L 15.890625 8.492188 L 16.246094 11.40625 L 19.136719 8.304688 L 19.921875 11.34375 L 19.742188 11.457031 L 19.363281 14.199219 L 18.914062 14.269531 L 18.296875 16.042969 L 17.804688 16.035156 L 18.003906 16.089844 L 15.882812 17.292969 L 18.945312 18.5 L 18.085938 19.558594 L 16.65625 20.753906 L 15.460938 21.496094 " fill-opacity="1" fill-rule="evenodd"/><path fill="#ffffff" d="M 16.507812 20.476562 L 15.691406 19.832031 L 16.214844 20.703125 L 15.59375 21.058594 L 14.425781 18.613281 L 12.554688 18.335938 L 11.4375 16.757812 L 10.558594 13.960938 L 9.808594 13.886719 L 10.375 13.152344 L 11.4375 13.246094 L 12.46875 14.496094 L 13.449219 14.863281 L 18.980469 8.925781 L 19.566406 11.199219 L 17.917969 12.25 L 19.382812 11.820312 L 19.089844 13.921875 L 17.242188 14.222656 L 18.558594 14.355469 L 18.082031 15.726562 L 15.320312 15.6875 L 17.1875 16.195312 L 15.15625 17.34375 L 18.429688 18.636719 L 17.84375 19.351562 L 16.542969 18.75 L 17.625 19.574219 L 17.074219 20.027344 L 15.996094 19.21875 L 16.855469 20.15625 Z M 12.5625 14.1875 L 15.6875 9.371094 L 15.96875 11.6875 L 13.363281 14.488281 L 12.5625 14.1875 " fill-opacity="1" fill-rule="evenodd"/><g clip-path="url(#4f358de4c9)"><path stroke-linecap="butt" transform="matrix(0.725806, 0, 0, 0.725806, 2.600804, 0.344422)" fill="none" stroke-linejoin="miter" d="M 0.00104542 -0.00092654 L 0.00104542 39.51331 L 33.439067 39.51331 L 33.439067 -0.00092654 L 0.00104542 -0.00092654 " stroke="#ffffff" stroke-width="4" stroke-opacity="1" stroke-miterlimit="4"/></g><g fill="#ffffff" fill-opacity="1"><g transform="translate(54.432566, 18.64888)"><g><path d="M 7.78125 -7.390625 C 7.78125 -6.742188 7.617188 -6.195312 7.296875 -5.75 C 6.972656 -5.300781 6.523438 -5 5.953125 -4.84375 L 7.625 -1.390625 C 7.78125 -1.054688 7.910156 -0.8125 8.015625 -0.65625 C 8.128906 -0.5 8.238281 -0.394531 8.34375 -0.34375 C 8.457031 -0.289062 8.59375 -0.265625 8.75 -0.265625 L 8.75 0 L 6.171875 0 L 3.859375 -4.734375 L 3.484375 -4.734375 L 3.484375 -1.21875 C 3.484375 -0.832031 3.5625 -0.578125 3.71875 -0.453125 C 3.875 -0.328125 4.132812 -0.265625 4.5 -0.265625 L 4.5 0 L 0.46875 0 L 0.46875 -0.265625 C 0.820312 -0.265625 1.066406 -0.335938 1.203125 -0.484375 C 1.347656 -0.640625 1.421875 -0.890625 1.421875 -1.234375 L 1.421875 -8.921875 C 1.421875 -9.285156 1.34375 -9.535156 1.1875 -9.671875 C 1.039062 -9.816406 0.820312 -9.890625 0.53125 -9.890625 L 0.46875 -9.890625 L 0.46875 -10.15625 L 4.53125 -10.15625 C 5.5 -10.15625 6.28125 -9.925781 6.875 -9.46875 C 7.476562 -9.019531 7.78125 -8.328125 7.78125 -7.390625 Z M 3.8125 -5.1875 C 4.46875 -5.1875 4.9375 -5.359375 5.21875 -5.703125 C 5.5 -6.054688 5.640625 -6.644531 5.640625 -7.46875 C 5.640625 -8.28125 5.488281 -8.835938 5.1875 -9.140625 C 4.882812 -9.453125 4.363281 -9.609375 3.625 -9.609375 L 3.484375 -9.609375 L 3.484375 -5.1875 Z M 3.8125 -5.1875 "/></g></g></g><g fill="#ffffff" fill-opacity="1"><g transform="translate(66.600833, 18.64888)"><g><path d="M 4.265625 -10.390625 L 6.796875 -1.921875 C 6.929688 -1.472656 7.039062 -1.144531 7.125 -0.9375 C 7.207031 -0.726562 7.300781 -0.566406 7.40625 -0.453125 C 7.507812 -0.347656 7.648438 -0.285156 7.828125 -0.265625 L 7.828125 0 L 4.265625 0 L 4.265625 -0.265625 C 4.523438 -0.265625 4.710938 -0.296875 4.828125 -0.359375 C 4.941406 -0.421875 5 -0.523438 5 -0.671875 C 5 -0.753906 4.984375 -0.867188 4.953125 -1.015625 C 4.921875 -1.171875 4.894531 -1.300781 4.875 -1.40625 L 4.578125 -2.40625 L 2.046875 -2.40625 L 1.71875 -1.296875 C 1.632812 -1.046875 1.59375 -0.867188 1.59375 -0.765625 C 1.59375 -0.585938 1.648438 -0.457031 1.765625 -0.375 C 1.890625 -0.300781 2.082031 -0.265625 2.34375 -0.265625 L 2.34375 0 L 0.234375 0 L 0.234375 -0.265625 C 0.410156 -0.296875 0.554688 -0.359375 0.671875 -0.453125 C 0.785156 -0.546875 0.882812 -0.695312 0.96875 -0.90625 C 1.0625 -1.113281 1.179688 -1.4375 1.328125 -1.875 L 3.984375 -10.390625 Z M 4.40625 -2.96875 L 3.34375 -6.5 L 3.328125 -6.5 L 2.21875 -2.96875 Z M 4.40625 -2.96875 "/></g></g></g><g fill="#ffffff" fill-opacity="1"><g transform="translate(77.994654, 18.64888)"><g><path d="M 4.109375 -9.890625 L 3.984375 -9.890625 C 3.453125 -9.890625 3.1875 -9.570312 3.1875 -8.9375 L 3.1875 -1.25 C 3.1875 -0.882812 3.257812 -0.628906 3.40625 -0.484375 C 3.5625 -0.335938 3.796875 -0.265625 4.109375 -0.265625 L 4.109375 0 L 0.234375 0 L 0.234375 -0.265625 C 0.566406 -0.265625 0.796875 -0.34375 0.921875 -0.5 C 1.054688 -0.664062 1.125 -0.914062 1.125 -1.25 L 1.125 -8.9375 C 1.125 -9.269531 1.050781 -9.507812 0.90625 -9.65625 C 0.769531 -9.8125 0.546875 -9.890625 0.234375 -9.890625 L 0.234375 -10.15625 L 4.109375 -10.15625 Z M 4.109375 -9.890625 "/></g></g></g><g fill="#ffffff" fill-opacity="1"><g transform="translate(85.665181, 18.64888)"><g><path d="M 2.921875 -10.390625 C 3.210938 -10.390625 3.46875 -10.351562 3.6875 -10.28125 C 3.90625 -10.207031 4.15625 -10.109375 4.4375 -9.984375 C 4.738281 -9.828125 4.945312 -9.75 5.0625 -9.75 C 5.195312 -9.75 5.300781 -9.796875 5.375 -9.890625 C 5.457031 -9.992188 5.515625 -10.160156 5.546875 -10.390625 L 5.828125 -10.390625 L 5.90625 -7.09375 L 5.640625 -7.09375 C 5.492188 -7.925781 5.191406 -8.59375 4.734375 -9.09375 C 4.285156 -9.59375 3.765625 -9.84375 3.171875 -9.84375 C 2.753906 -9.84375 2.398438 -9.703125 2.109375 -9.421875 C 1.828125 -9.140625 1.6875 -8.785156 1.6875 -8.359375 C 1.6875 -8.046875 1.765625 -7.773438 1.921875 -7.546875 C 2.085938 -7.316406 2.296875 -7.117188 2.546875 -6.953125 C 2.796875 -6.785156 3.144531 -6.582031 3.59375 -6.34375 C 4.164062 -6.03125 4.632812 -5.742188 5 -5.484375 C 5.363281 -5.222656 5.675781 -4.875 5.9375 -4.4375 C 6.195312 -4 6.328125 -3.460938 6.328125 -2.828125 C 6.328125 -2.242188 6.203125 -1.71875 5.953125 -1.25 C 5.703125 -0.789062 5.359375 -0.429688 4.921875 -0.171875 C 4.492188 0.0859375 4.007812 0.21875 3.46875 0.21875 C 3.175781 0.21875 2.914062 0.1875 2.6875 0.125 C 2.457031 0.0625 2.171875 -0.03125 1.828125 -0.15625 C 1.503906 -0.300781 1.273438 -0.375 1.140625 -0.375 C 0.878906 -0.375 0.703125 -0.175781 0.609375 0.21875 L 0.359375 0.21875 L 0.359375 -3.546875 L 0.625 -3.546875 C 0.71875 -2.921875 0.890625 -2.363281 1.140625 -1.875 C 1.398438 -1.382812 1.722656 -1.003906 2.109375 -0.734375 C 2.492188 -0.460938 2.898438 -0.328125 3.328125 -0.328125 C 3.765625 -0.328125 4.128906 -0.484375 4.421875 -0.796875 C 4.710938 -1.117188 4.859375 -1.53125 4.859375 -2.03125 C 4.859375 -2.375 4.796875 -2.644531 4.671875 -2.84375 C 4.554688 -3.050781 4.363281 -3.257812 4.09375 -3.46875 C 3.90625 -3.613281 3.484375 -3.882812 2.828125 -4.28125 L 2.5 -4.484375 C 1.800781 -4.898438 1.265625 -5.332031 0.890625 -5.78125 C 0.523438 -6.238281 0.34375 -6.832031 0.34375 -7.5625 C 0.34375 -8.113281 0.453125 -8.601562 0.671875 -9.03125 C 0.890625 -9.457031 1.191406 -9.789062 1.578125 -10.03125 C 1.972656 -10.269531 2.421875 -10.390625 2.921875 -10.390625 Z M 2.921875 -10.390625 "/></g></g></g><g fill="#ffffff" fill-opacity="1"><g transform="translate(95.659041, 18.64888)"><g><path d="M 7.0625 -7.25 L 6.796875 -7.25 C 6.722656 -7.925781 6.539062 -8.4375 6.25 -8.78125 C 5.96875 -9.132812 5.628906 -9.359375 5.234375 -9.453125 C 4.835938 -9.554688 4.367188 -9.609375 3.828125 -9.609375 L 3.3125 -9.609375 L 3.3125 -5.4375 C 3.914062 -5.457031 4.351562 -5.660156 4.625 -6.046875 C 4.90625 -6.441406 5.046875 -7.015625 5.046875 -7.765625 L 5.3125 -7.765625 L 5.3125 -2.609375 L 5.046875 -2.609375 C 5.046875 -3.347656 4.90625 -3.910156 4.625 -4.296875 C 4.351562 -4.679688 3.914062 -4.878906 3.3125 -4.890625 L 3.3125 -1.671875 C 3.3125 -1.335938 3.335938 -1.09375 3.390625 -0.9375 C 3.441406 -0.78125 3.53125 -0.675781 3.65625 -0.625 C 3.78125 -0.570312 3.960938 -0.546875 4.203125 -0.546875 C 4.847656 -0.546875 5.375 -0.628906 5.78125 -0.796875 C 6.1875 -0.972656 6.519531 -1.242188 6.78125 -1.609375 C 7.039062 -1.972656 7.28125 -2.476562 7.5 -3.125 L 7.765625 -3.125 L 7.28125 0 L 0.1875 0 L 0.1875 -0.265625 L 0.34375 -0.265625 C 0.644531 -0.265625 0.867188 -0.332031 1.015625 -0.46875 C 1.171875 -0.613281 1.25 -0.875 1.25 -1.25 L 1.25 -8.90625 C 1.25 -9.28125 1.171875 -9.535156 1.015625 -9.671875 C 0.867188 -9.816406 0.625 -9.890625 0.28125 -9.890625 L 0.1875 -9.890625 L 0.1875 -10.15625 L 7.0625 -10.15625 Z M 7.0625 -7.25 "/></g></g></g><g fill="#ffffff" fill-opacity="1"><g transform="translate(107.065095, 18.64888)"><g/></g></g><g fill="#ffffff" fill-opacity="1"><g transform="translate(58.999292, 24.625955)"><g><path d="M 1.453125 -0.6875 L 1.46875 -0.6875 L 2.171875 -2.640625 L 2.8125 -2.640625 L 2.8125 -2.578125 C 2.738281 -2.578125 2.679688 -2.566406 2.640625 -2.546875 C 2.609375 -2.535156 2.582031 -2.503906 2.5625 -2.453125 C 2.539062 -2.410156 2.53125 -2.34375 2.53125 -2.25 L 2.53125 -0.40625 C 2.53125 -0.300781 2.539062 -0.222656 2.5625 -0.171875 C 2.582031 -0.128906 2.609375 -0.0976562 2.640625 -0.078125 C 2.679688 -0.0664062 2.738281 -0.0625 2.8125 -0.0625 L 2.8125 0 L 1.84375 0 L 1.84375 -0.0625 C 1.925781 -0.0625 1.988281 -0.0664062 2.03125 -0.078125 C 2.082031 -0.0976562 2.117188 -0.128906 2.140625 -0.171875 C 2.160156 -0.222656 2.171875 -0.300781 2.171875 -0.40625 L 2.171875 -2.203125 L 2.15625 -2.203125 L 1.375 0 L 1.328125 0 L 0.546875 -2.15625 L 0.53125 -2.15625 L 0.53125 -0.40625 C 0.53125 -0.300781 0.539062 -0.222656 0.5625 -0.171875 C 0.582031 -0.128906 0.613281 -0.0976562 0.65625 -0.078125 C 0.695312 -0.0664062 0.765625 -0.0625 0.859375 -0.0625 L 0.859375 0 L 0.078125 0 L 0.078125 -0.0625 C 0.160156 -0.0625 0.222656 -0.0664062 0.265625 -0.078125 C 0.304688 -0.0976562 0.335938 -0.128906 0.359375 -0.171875 C 0.378906 -0.222656 0.390625 -0.300781 0.390625 -0.40625 L 0.390625 -2.25 C 0.390625 -2.34375 0.378906 -2.410156 0.359375 -2.453125 C 0.335938 -2.503906 0.304688 -2.535156 0.265625 -2.546875 C 0.222656 -2.566406 0.160156 -2.578125 0.078125 -2.578125 L 0.078125 -2.640625 L 0.75 -2.640625 Z M 1.453125 -0.6875 "/></g></g></g><g fill="#ffffff" fill-opacity="1"><g transform="translate(64.974392, 24.625955)"><g><path d="M 1.828125 -2.0625 L 1.765625 -2.0625 C 1.742188 -2.1875 1.71875 -2.273438 1.6875 -2.328125 C 1.65625 -2.390625 1.609375 -2.429688 1.546875 -2.453125 C 1.492188 -2.484375 1.414062 -2.5 1.3125 -2.5 L 0.765625 -2.5 L 0.765625 -1.453125 L 1.1875 -1.453125 C 1.289062 -1.453125 1.367188 -1.46875 1.421875 -1.5 C 1.472656 -1.53125 1.503906 -1.570312 1.515625 -1.625 C 1.535156 -1.6875 1.546875 -1.765625 1.546875 -1.859375 L 1.609375 -1.859375 L 1.609375 -0.9375 L 1.546875 -0.9375 C 1.546875 -1.0625 1.523438 -1.15625 1.484375 -1.21875 C 1.453125 -1.28125 1.378906 -1.3125 1.265625 -1.3125 L 0.765625 -1.3125 L 0.765625 -0.34375 C 0.765625 -0.269531 0.773438 -0.21875 0.796875 -0.1875 C 0.816406 -0.15625 0.863281 -0.140625 0.9375 -0.140625 L 1.34375 -0.140625 C 1.507812 -0.140625 1.632812 -0.1875 1.71875 -0.28125 C 1.800781 -0.375 1.875 -0.503906 1.9375 -0.671875 L 2 -0.65625 L 1.796875 0 L 0.0625 0 L 0.0625 -0.0625 C 0.15625 -0.0625 0.222656 -0.0664062 0.265625 -0.078125 C 0.304688 -0.0976562 0.335938 -0.128906 0.359375 -0.171875 C 0.378906 -0.222656 0.390625 -0.300781 0.390625 -0.40625 L 0.390625 -2.25 C 0.390625 -2.34375 0.378906 -2.410156 0.359375 -2.453125 C 0.347656 -2.503906 0.320312 -2.535156 0.28125 -2.546875 C 0.238281 -2.566406 0.175781 -2.578125 0.09375 -2.578125 L 0.0625 -2.578125 L 0.0625 -2.640625 L 1.796875 -2.640625 Z M 1.828125 -2.0625 "/></g></g></g><g fill="#ffffff" fill-opacity="1"><g transform="translate(70.181259, 24.625955)"><g><path d="M 1.140625 -2.578125 C 1.046875 -2.578125 0.972656 -2.566406 0.921875 -2.546875 C 0.878906 -2.535156 0.847656 -2.503906 0.828125 -2.453125 C 0.804688 -2.410156 0.796875 -2.34375 0.796875 -2.25 L 0.796875 -0.34375 C 0.796875 -0.257812 0.804688 -0.203125 0.828125 -0.171875 C 0.847656 -0.148438 0.894531 -0.140625 0.96875 -0.140625 L 1.28125 -0.140625 C 1.425781 -0.140625 1.535156 -0.15625 1.609375 -0.1875 C 1.691406 -0.226562 1.753906 -0.285156 1.796875 -0.359375 C 1.847656 -0.441406 1.894531 -0.5625 1.9375 -0.71875 L 2 -0.703125 L 1.8125 0 L 0.078125 0 L 0.078125 -0.0625 C 0.179688 -0.0625 0.253906 -0.0664062 0.296875 -0.078125 C 0.347656 -0.0976562 0.382812 -0.128906 0.40625 -0.171875 C 0.425781 -0.222656 0.4375 -0.296875 0.4375 -0.390625 L 0.4375 -2.25 C 0.4375 -2.34375 0.421875 -2.410156 0.390625 -2.453125 C 0.367188 -2.503906 0.332031 -2.535156 0.28125 -2.546875 C 0.238281 -2.566406 0.171875 -2.578125 0.078125 -2.578125 L 0.078125 -2.640625 L 1.140625 -2.640625 Z M 1.140625 -2.578125 "/></g></g></g><g fill="#ffffff" fill-opacity="1"><g transform="translate(75.388128, 24.625955)"><g><path d="M 1.15625 -2.703125 C 1.375 -2.703125 1.5625 -2.632812 1.71875 -2.5 C 1.875 -2.375 1.992188 -2.203125 2.078125 -1.984375 C 2.160156 -1.773438 2.203125 -1.554688 2.203125 -1.328125 C 2.203125 -1.085938 2.160156 -0.859375 2.078125 -0.640625 C 1.992188 -0.429688 1.875 -0.257812 1.71875 -0.125 C 1.5625 0 1.375 0.0625 1.15625 0.0625 C 0.9375 0.0625 0.75 0 0.59375 -0.125 C 0.4375 -0.25 0.316406 -0.414062 0.234375 -0.625 C 0.148438 -0.84375 0.109375 -1.078125 0.109375 -1.328125 C 0.109375 -1.554688 0.144531 -1.773438 0.21875 -1.984375 C 0.300781 -2.203125 0.421875 -2.375 0.578125 -2.5 C 0.734375 -2.632812 0.925781 -2.703125 1.15625 -2.703125 Z M 0.53125 -1.328125 C 0.53125 -0.890625 0.578125 -0.570312 0.671875 -0.375 C 0.773438 -0.175781 0.9375 -0.078125 1.15625 -0.078125 C 1.375 -0.078125 1.53125 -0.179688 1.625 -0.390625 C 1.71875 -0.597656 1.765625 -0.910156 1.765625 -1.328125 C 1.765625 -1.765625 1.710938 -2.078125 1.609375 -2.265625 C 1.515625 -2.460938 1.359375 -2.5625 1.140625 -2.5625 C 0.960938 -2.5625 0.828125 -2.492188 0.734375 -2.359375 C 0.648438 -2.234375 0.59375 -2.082031 0.5625 -1.90625 C 0.539062 -1.726562 0.53125 -1.535156 0.53125 -1.328125 Z M 0.53125 -1.328125 "/></g></g></g><g fill="#ffffff" fill-opacity="1"><g transform="translate(80.796753, 24.625955)"><g><path d="M 2.390625 -1.3125 C 2.390625 -1.039062 2.328125 -0.804688 2.203125 -0.609375 C 2.085938 -0.410156 1.929688 -0.257812 1.734375 -0.15625 C 1.546875 -0.0507812 1.34375 0 1.125 0 L 0.078125 0 L 0.078125 -0.0625 C 0.171875 -0.0625 0.238281 -0.0664062 0.28125 -0.078125 C 0.320312 -0.0976562 0.351562 -0.128906 0.375 -0.171875 C 0.394531 -0.222656 0.40625 -0.300781 0.40625 -0.40625 L 0.40625 -2.25 C 0.40625 -2.351562 0.394531 -2.425781 0.375 -2.46875 C 0.351562 -2.507812 0.320312 -2.535156 0.28125 -2.546875 C 0.238281 -2.566406 0.171875 -2.578125 0.078125 -2.578125 L 0.078125 -2.640625 L 1.09375 -2.640625 C 1.351562 -2.640625 1.582031 -2.582031 1.78125 -2.46875 C 1.976562 -2.363281 2.128906 -2.207031 2.234375 -2 C 2.335938 -1.800781 2.390625 -1.570312 2.390625 -1.3125 Z M 0.78125 -2.453125 L 0.78125 -0.1875 C 0.875 -0.144531 0.984375 -0.125 1.109375 -0.125 C 1.378906 -0.125 1.585938 -0.222656 1.734375 -0.421875 C 1.878906 -0.628906 1.953125 -0.921875 1.953125 -1.296875 C 1.953125 -1.660156 1.875 -1.953125 1.71875 -2.171875 C 1.570312 -2.390625 1.351562 -2.5 1.0625 -2.5 C 0.96875 -2.5 0.875 -2.484375 0.78125 -2.453125 Z M 0.78125 -2.453125 "/></g></g></g><g fill="#ffffff" fill-opacity="1"><g transform="translate(86.407137, 24.625955)"><g><path d="M 1.078125 -2.578125 C 0.992188 -2.578125 0.925781 -2.566406 0.875 -2.546875 C 0.832031 -2.535156 0.800781 -2.503906 0.78125 -2.453125 C 0.757812 -2.410156 0.75 -2.34375 0.75 -2.25 L 0.75 -0.40625 C 0.75 -0.300781 0.757812 -0.222656 0.78125 -0.171875 C 0.800781 -0.128906 0.832031 -0.0976562 0.875 -0.078125 C 0.914062 -0.0664062 0.984375 -0.0625 1.078125 -0.0625 L 1.078125 0 L 0.0625 0 L 0.0625 -0.0625 C 0.144531 -0.0625 0.207031 -0.0664062 0.25 -0.078125 C 0.300781 -0.0976562 0.335938 -0.128906 0.359375 -0.171875 C 0.378906 -0.222656 0.390625 -0.300781 0.390625 -0.40625 L 0.390625 -2.25 C 0.390625 -2.34375 0.375 -2.410156 0.34375 -2.453125 C 0.320312 -2.503906 0.289062 -2.535156 0.25 -2.546875 C 0.207031 -2.566406 0.144531 -2.578125 0.0625 -2.578125 L 0.0625 -2.640625 L 1.078125 -2.640625 Z M 1.078125 -2.578125 "/></g></g></g><g fill="#ffffff" fill-opacity="1"><g transform="translate(90.644019, 24.625955)"><g><path d="M 1.828125 -2.0625 L 1.765625 -2.0625 C 1.742188 -2.1875 1.71875 -2.273438 1.6875 -2.328125 C 1.65625 -2.390625 1.609375 -2.429688 1.546875 -2.453125 C 1.492188 -2.484375 1.414062 -2.5 1.3125 -2.5 L 0.765625 -2.5 L 0.765625 -1.453125 L 1.1875 -1.453125 C 1.289062 -1.453125 1.367188 -1.46875 1.421875 -1.5 C 1.472656 -1.53125 1.503906 -1.570312 1.515625 -1.625 C 1.535156 -1.6875 1.546875 -1.765625 1.546875 -1.859375 L 1.609375 -1.859375 L 1.609375 -0.9375 L 1.546875 -0.9375 C 1.546875 -1.0625 1.523438 -1.15625 1.484375 -1.21875 C 1.453125 -1.28125 1.378906 -1.3125 1.265625 -1.3125 L 0.765625 -1.3125 L 0.765625 -0.34375 C 0.765625 -0.269531 0.773438 -0.21875 0.796875 -0.1875 C 0.816406 -0.15625 0.863281 -0.140625 0.9375 -0.140625 L 1.34375 -0.140625 C 1.507812 -0.140625 1.632812 -0.1875 1.71875 -0.28125 C 1.800781 -0.375 1.875 -0.503906 1.9375 -0.671875 L 2 -0.65625 L 1.796875 0 L 0.0625 0 L 0.0625 -0.0625 C 0.15625 -0.0625 0.222656 -0.0664062 0.265625 -0.078125 C 0.304688 -0.0976562 0.335938 -0.128906 0.359375 -0.171875 C 0.378906 -0.222656 0.390625 -0.300781 0.390625 -0.40625 L 0.390625 -2.25 C 0.390625 -2.34375 0.378906 -2.410156 0.359375 -2.453125 C 0.347656 -2.503906 0.320312 -2.535156 0.28125 -2.546875 C 0.238281 -2.566406 0.175781 -2.578125 0.09375 -2.578125 L 0.0625 -2.578125 L 0.0625 -2.640625 L 1.796875 -2.640625 Z M 1.828125 -2.0625 "/></g></g></g><g fill="#ffffff" fill-opacity="1"><g transform="translate(95.850886, 24.625955)"><g><path d="M 0.765625 -2.703125 C 0.847656 -2.703125 0.921875 -2.691406 0.984375 -2.671875 C 1.046875 -2.660156 1.109375 -2.640625 1.171875 -2.609375 C 1.222656 -2.578125 1.257812 -2.5625 1.28125 -2.5625 C 1.351562 -2.5625 1.398438 -2.609375 1.421875 -2.703125 L 1.484375 -2.703125 L 1.484375 -1.84375 L 1.421875 -1.84375 C 1.421875 -2 1.382812 -2.128906 1.3125 -2.234375 C 1.25 -2.347656 1.171875 -2.425781 1.078125 -2.46875 C 0.984375 -2.519531 0.890625 -2.546875 0.796875 -2.546875 C 0.691406 -2.546875 0.601562 -2.515625 0.53125 -2.453125 C 0.457031 -2.390625 0.421875 -2.304688 0.421875 -2.203125 C 0.421875 -2.109375 0.441406 -2.023438 0.484375 -1.953125 C 0.535156 -1.878906 0.601562 -1.804688 0.6875 -1.734375 C 0.71875 -1.703125 0.8125 -1.640625 0.96875 -1.546875 C 1.101562 -1.441406 1.210938 -1.351562 1.296875 -1.28125 C 1.378906 -1.21875 1.445312 -1.144531 1.5 -1.0625 C 1.539062 -1.007812 1.570312 -0.945312 1.59375 -0.875 C 1.613281 -0.800781 1.625 -0.726562 1.625 -0.65625 C 1.625 -0.53125 1.585938 -0.410156 1.515625 -0.296875 C 1.453125 -0.179688 1.363281 -0.09375 1.25 -0.03125 C 1.144531 0.03125 1.023438 0.0625 0.890625 0.0625 C 0.816406 0.0625 0.753906 0.0507812 0.703125 0.03125 C 0.648438 0.0195312 0.585938 0 0.515625 -0.03125 C 0.441406 -0.0625 0.390625 -0.078125 0.359375 -0.078125 C 0.273438 -0.078125 0.226562 -0.0351562 0.21875 0.046875 L 0.140625 0.046875 L 0.140625 -0.828125 L 0.21875 -0.828125 C 0.21875 -0.671875 0.25 -0.535156 0.3125 -0.421875 C 0.382812 -0.304688 0.46875 -0.222656 0.5625 -0.171875 C 0.65625 -0.117188 0.753906 -0.09375 0.859375 -0.09375 C 0.984375 -0.09375 1.082031 -0.128906 1.15625 -0.203125 C 1.226562 -0.285156 1.265625 -0.390625 1.265625 -0.515625 C 1.265625 -0.671875 1.207031 -0.8125 1.09375 -0.9375 C 1.019531 -0.988281 0.90625 -1.070312 0.75 -1.1875 C 0.582031 -1.300781 0.46875 -1.390625 0.40625 -1.453125 C 0.3125 -1.535156 0.238281 -1.625 0.1875 -1.71875 C 0.144531 -1.8125 0.125 -1.914062 0.125 -2.03125 C 0.125 -2.226562 0.179688 -2.390625 0.296875 -2.515625 C 0.421875 -2.640625 0.578125 -2.703125 0.765625 -2.703125 Z M 0.765625 -2.703125 "/></g></g></g><g fill="#ffffff" fill-opacity="1"><g transform="translate(100.693285, 24.625955)"><g/></g></g><g clip-path="url(#756fd23865)"><g clip-path="url(#160e781603)"><g clip-path="url(#acf5f1b018)"><path fill="#ffffff" d="M 47.796875 5.558594 C 47.335938 5.527344 46.878906 5.539062 46.429688 5.59375 C 46.097656 5.636719 45.769531 5.703125 45.449219 5.789062 C 45.429688 5.890625 45.441406 5.996094 45.445312 6.09375 C 45.449219 6.210938 45.445312 6.324219 45.445312 6.4375 C 46.179688 6.265625 46.949219 6.273438 47.667969 6.445312 C 48.050781 6.535156 48.417969 6.671875 48.753906 6.847656 C 48.925781 6.9375 49.085938 7.035156 49.234375 7.144531 C 49.386719 7.25 49.527344 7.367188 49.65625 7.492188 C 49.722656 7.554688 49.78125 7.617188 49.839844 7.683594 C 49.847656 7.691406 49.855469 7.699219 49.863281 7.707031 L 49.886719 7.734375 L 49.929688 7.789062 C 49.957031 7.820312 49.988281 7.855469 50.015625 7.890625 C 50.128906 8.035156 50.226562 8.183594 50.320312 8.335938 C 50.414062 8.484375 50.492188 8.644531 50.566406 8.804688 C 50.636719 8.964844 50.695312 9.132812 50.746094 9.300781 L 50.78125 9.425781 C 50.792969 9.46875 50.800781 9.511719 50.8125 9.554688 C 50.816406 9.578125 50.824219 9.597656 50.828125 9.621094 L 50.839844 9.6875 L 50.855469 9.75 L 50.859375 9.785156 L 50.867188 9.816406 L 50.90625 10.082031 C 50.910156 10.125 50.914062 10.171875 50.917969 10.214844 C 50.921875 10.257812 50.929688 10.304688 50.929688 10.347656 L 50.9375 10.484375 L 50.941406 10.621094 C 50.941406 10.664062 50.941406 10.710938 50.9375 10.757812 C 50.9375 10.800781 50.9375 10.847656 50.933594 10.894531 L 50.925781 11.03125 L 50.914062 11.167969 C 50.910156 11.214844 50.90625 11.261719 50.898438 11.304688 C 50.894531 11.351562 50.890625 11.398438 50.882812 11.441406 C 50.828125 11.808594 50.734375 12.171875 50.613281 12.53125 L 50.5625 12.664062 C 50.546875 12.707031 50.53125 12.75 50.511719 12.792969 L 50.488281 12.859375 L 50.460938 12.925781 C 50.441406 12.96875 50.421875 13.011719 50.402344 13.054688 L 50.34375 13.183594 L 50.328125 13.214844 L 50.3125 13.25 L 50.277344 13.316406 L 50.144531 13.582031 C 49.957031 13.9375 49.753906 14.285156 49.535156 14.628906 C 49.316406 14.972656 49.085938 15.316406 48.84375 15.65625 C 48.363281 16.332031 47.84375 17.007812 47.332031 17.699219 C 47.15625 17.941406 46.976562 18.1875 46.800781 18.4375 C 46.777344 18.476562 46.753906 18.519531 46.726562 18.558594 C 46.671875 18.644531 46.609375 18.730469 46.550781 18.8125 C 46.433594 18.972656 46.316406 19.132812 46.207031 19.304688 C 46.203125 19.3125 46.199219 19.320312 46.191406 19.328125 C 46.191406 19.332031 46.191406 19.332031 46.1875 19.335938 C 46.074219 19.507812 45.964844 19.683594 45.859375 19.859375 C 45.746094 20.050781 45.636719 20.242188 45.53125 20.433594 C 45.476562 20.53125 45.425781 20.632812 45.375 20.730469 C 45.367188 20.742188 45.359375 20.753906 45.351562 20.769531 L 45.332031 20.808594 C 45.320312 20.835938 45.304688 20.863281 45.292969 20.890625 C 45.269531 20.945312 45.242188 21 45.21875 21.054688 C 45.128906 21.273438 45.054688 21.492188 44.988281 21.710938 C 44.921875 21.929688 44.871094 22.148438 44.820312 22.367188 C 44.730469 22.804688 44.664062 23.242188 44.613281 23.679688 C 44.566406 24.117188 44.539062 24.554688 44.535156 25 C 44.535156 25.109375 44.535156 25.222656 44.539062 25.335938 C 44.539062 25.363281 44.539062 25.390625 44.542969 25.417969 C 44.542969 25.445312 44.542969 25.476562 44.546875 25.503906 C 44.546875 25.535156 44.550781 25.5625 44.550781 25.589844 C 44.554688 25.621094 44.558594 25.648438 44.558594 25.675781 C 44.582031 25.90625 44.617188 26.125 44.660156 26.347656 C 44.703125 26.566406 44.757812 26.785156 44.820312 27 C 44.835938 27.054688 44.855469 27.109375 44.875 27.164062 C 44.890625 27.21875 44.910156 27.273438 44.929688 27.324219 C 44.96875 27.433594 45.015625 27.539062 45.0625 27.644531 C 45.113281 27.75 45.167969 27.855469 45.230469 27.960938 C 45.292969 28.0625 45.363281 28.164062 45.445312 28.261719 C 45.527344 28.359375 45.617188 28.457031 45.726562 28.542969 L 45.808594 28.609375 C 45.839844 28.628906 45.867188 28.648438 45.898438 28.667969 C 45.914062 28.679688 45.929688 28.6875 45.945312 28.695312 L 45.988281 28.71875 C 46.003906 28.730469 46.019531 28.734375 46.035156 28.742188 L 46.082031 28.765625 C 46.113281 28.78125 46.148438 28.796875 46.183594 28.808594 C 46.21875 28.824219 46.253906 28.835938 46.292969 28.84375 L 46.347656 28.859375 C 46.367188 28.863281 46.386719 28.871094 46.40625 28.871094 C 46.449219 28.878906 46.488281 28.886719 46.53125 28.886719 C 46.613281 28.894531 46.699219 28.886719 46.785156 28.875 C 46.828125 28.867188 46.871094 28.859375 46.914062 28.84375 C 46.933594 28.839844 46.957031 28.832031 46.976562 28.824219 C 46.996094 28.816406 47.019531 28.808594 47.039062 28.800781 C 47.117188 28.765625 47.195312 28.726562 47.261719 28.675781 C 47.296875 28.652344 47.328125 28.628906 47.359375 28.601562 C 47.375 28.585938 47.390625 28.574219 47.40625 28.558594 C 47.417969 28.546875 47.433594 28.53125 47.449219 28.519531 C 47.558594 28.40625 47.648438 28.28125 47.714844 28.148438 C 47.785156 28.019531 47.828125 27.882812 47.855469 27.746094 C 47.882812 27.609375 47.894531 27.46875 47.898438 27.328125 L 47.894531 26.671875 C 47.894531 26.5625 47.886719 26.453125 47.882812 26.34375 L 47.871094 26.015625 C 47.863281 25.796875 47.847656 25.582031 47.832031 25.367188 C 47.765625 24.5 47.660156 23.640625 47.53125 22.789062 L 47.429688 22.152344 C 47.414062 22.046875 47.394531 21.941406 47.375 21.835938 L 47.320312 21.519531 C 47.285156 21.304688 47.246094 21.09375 47.207031 20.886719 C 47.207031 20.886719 47.152344 20.570312 47.152344 20.570312 C 47.136719 20.484375 47.117188 20.402344 47.105469 20.316406 C 47.042969 20.425781 46.945312 20.53125 46.867188 20.632812 C 46.769531 20.765625 46.6875 20.902344 46.582031 21.035156 C 46.546875 21.082031 46.476562 21.132812 46.484375 21.199219 C 46.507812 21.34375 46.527344 21.492188 46.542969 21.636719 L 46.585938 21.953125 C 46.597656 22.058594 46.613281 22.164062 46.625 22.265625 L 46.695312 22.898438 C 46.785156 23.738281 46.851562 24.578125 46.878906 25.417969 C 46.882812 25.625 46.894531 25.835938 46.890625 26.042969 L 46.890625 26.359375 C 46.890625 26.460938 46.894531 26.566406 46.890625 26.671875 L 46.867188 27.289062 C 46.863281 27.363281 46.847656 27.4375 46.824219 27.507812 C 46.804688 27.574219 46.78125 27.644531 46.757812 27.707031 C 46.738281 27.773438 46.714844 27.828125 46.6875 27.878906 C 46.660156 27.929688 46.636719 27.96875 46.609375 28.003906 C 46.605469 28.007812 46.601562 28.011719 46.597656 28.015625 C 46.59375 28.019531 46.589844 28.023438 46.589844 28.027344 C 46.582031 28.035156 46.574219 28.039062 46.566406 28.046875 C 46.546875 28.058594 46.527344 28.074219 46.503906 28.082031 C 46.484375 28.089844 46.457031 28.09375 46.425781 28.097656 C 46.410156 28.097656 46.394531 28.101562 46.378906 28.097656 L 46.351562 28.097656 C 46.34375 28.09375 46.335938 28.09375 46.324219 28.09375 C 46.308594 28.089844 46.289062 28.085938 46.273438 28.082031 L 46.242188 28.070312 C 46.234375 28.070312 46.222656 28.066406 46.21875 28.0625 C 46.203125 28.054688 46.183594 28.050781 46.167969 28.042969 L 46.121094 28.015625 C 46.058594 27.976562 45.996094 27.917969 45.945312 27.851562 C 45.890625 27.785156 45.839844 27.710938 45.792969 27.628906 C 45.75 27.546875 45.707031 27.464844 45.671875 27.375 C 45.632812 27.285156 45.597656 27.195312 45.566406 27.101562 C 45.550781 27.054688 45.535156 27.003906 45.523438 26.957031 C 45.507812 26.910156 45.492188 26.863281 45.480469 26.8125 C 45.429688 26.621094 45.390625 26.421875 45.359375 26.222656 C 45.328125 26.023438 45.308594 25.820312 45.296875 25.621094 C 45.292969 25.523438 45.292969 25.429688 45.292969 25.328125 C 45.296875 25.226562 45.300781 25.125 45.304688 25.023438 C 45.316406 24.820312 45.335938 24.613281 45.359375 24.40625 C 45.386719 24.203125 45.414062 23.996094 45.449219 23.792969 C 45.519531 23.386719 45.609375 22.984375 45.722656 22.59375 C 45.777344 22.398438 45.839844 22.203125 45.910156 22.019531 C 46.082031 21.558594 46.328125 21.136719 46.609375 20.734375 C 46.886719 20.335938 47.175781 19.945312 47.480469 19.566406 C 47.765625 19.210938 48.0625 18.863281 48.359375 18.515625 L 49.195312 17.546875 C 49.476562 17.222656 49.753906 16.890625 50.027344 16.546875 C 50.300781 16.207031 50.566406 15.855469 50.824219 15.488281 C 51.078125 15.125 51.320312 14.746094 51.546875 14.351562 L 51.710938 14.054688 L 51.75 13.976562 L 51.769531 13.941406 L 51.789062 13.898438 L 51.871094 13.742188 C 51.972656 13.527344 52.066406 13.308594 52.148438 13.085938 C 52.316406 12.636719 52.441406 12.171875 52.515625 11.695312 C 52.59375 11.21875 52.617188 10.730469 52.585938 10.238281 C 52.582031 10.175781 52.574219 10.117188 52.570312 10.054688 C 52.5625 9.992188 52.558594 9.929688 52.546875 9.871094 C 52.539062 9.808594 52.53125 9.746094 52.519531 9.6875 L 52.484375 9.503906 L 52.476562 9.457031 L 52.464844 9.410156 L 52.445312 9.320312 L 52.421875 9.230469 C 52.414062 9.199219 52.40625 9.171875 52.398438 9.140625 C 52.378906 9.078125 52.363281 9.019531 52.34375 8.960938 L 52.28125 8.78125 C 52.273438 8.753906 52.261719 8.722656 52.25 8.695312 L 52.214844 8.609375 L 52.179688 8.519531 L 52.140625 8.433594 L 52.097656 8.347656 C 52.085938 8.320312 52.074219 8.292969 52.058594 8.265625 L 51.96875 8.097656 C 51.957031 8.070312 51.941406 8.042969 51.925781 8.015625 L 51.875 7.933594 L 51.828125 7.855469 L 51.777344 7.777344 L 51.722656 7.699219 C 51.707031 7.671875 51.691406 7.644531 51.671875 7.621094 L 51.558594 7.46875 C 51.539062 7.445312 51.519531 7.421875 51.5 7.398438 L 51.441406 7.324219 L 51.382812 7.253906 C 51.359375 7.230469 51.339844 7.207031 51.316406 7.183594 C 51.277344 7.140625 51.234375 7.09375 51.191406 7.046875 L 51.058594 6.917969 C 51.015625 6.875 50.96875 6.835938 50.921875 6.792969 L 50.851562 6.734375 L 50.820312 6.703125 C 50.808594 6.695312 50.792969 6.683594 50.78125 6.675781 C 50.734375 6.636719 50.683594 6.59375 50.632812 6.558594 C 50.582031 6.523438 50.535156 6.484375 50.484375 6.449219 C 50.277344 6.308594 50.0625 6.1875 49.84375 6.082031 C 49.625 5.976562 49.398438 5.890625 49.171875 5.816406 C 48.71875 5.675781 48.257812 5.59375 47.796875 5.558594 " fill-opacity="1" fill-rule="nonzero"/></g></g></g><g clip-path="url(#4c18b6e666)"><g clip-path="url(#0799411375)"><g clip-path="url(#862e4cff6f)"><path fill="#ffffff" d="M 47.960938 2.964844 C 47.953125 2.964844 47.949219 2.964844 47.945312 2.960938 C 47.945312 2.960938 47.941406 2.960938 47.941406 2.957031 C 47.941406 2.957031 47.945312 2.957031 47.945312 2.957031 C 47.949219 2.960938 47.949219 2.957031 47.953125 2.960938 C 47.960938 2.960938 47.964844 2.960938 47.96875 2.960938 C 47.96875 2.960938 47.96875 2.957031 47.96875 2.953125 C 47.96875 2.953125 47.96875 2.949219 47.972656 2.949219 C 47.972656 2.949219 47.976562 2.953125 47.980469 2.960938 C 47.984375 2.960938 47.984375 2.964844 47.984375 2.964844 C 47.976562 2.964844 47.96875 2.964844 47.960938 2.964844 Z M 44.496094 6.117188 C 44.519531 6.347656 44.535156 6.578125 44.53125 6.808594 C 44.605469 7.957031 44.742188 9.097656 44.902344 10.226562 C 45.015625 11.023438 45.140625 11.8125 45.261719 12.601562 C 45.261719 12.613281 45.410156 12.652344 45.425781 12.65625 C 45.488281 12.671875 45.550781 12.6875 45.617188 12.695312 C 45.632812 12.699219 45.863281 12.71875 45.863281 12.710938 C 45.863281 12.703125 45.859375 12.691406 45.859375 12.683594 C 45.742188 11.835938 45.636719 10.992188 45.546875 10.148438 C 45.457031 9.304688 45.386719 8.460938 45.34375 7.617188 L 45.320312 6.984375 L 45.3125 6.582031 C 45.308594 6.578125 45.308594 6.570312 45.308594 6.566406 C 45.308594 6.398438 45.3125 6.230469 45.304688 6.0625 C 45.300781 5.96875 45.296875 5.875 45.308594 5.785156 L 45.308594 5.722656 L 45.328125 5.09375 C 45.34375 4.671875 45.371094 4.265625 45.441406 3.875 C 45.472656 3.679688 45.515625 3.492188 45.574219 3.308594 C 45.585938 3.265625 45.601562 3.21875 45.617188 3.175781 C 45.632812 3.132812 45.648438 3.089844 45.667969 3.046875 L 45.695312 2.980469 L 45.722656 2.917969 C 45.742188 2.875 45.761719 2.835938 45.78125 2.792969 C 45.867188 2.632812 45.964844 2.480469 46.074219 2.34375 C 46.183594 2.207031 46.308594 2.085938 46.441406 1.988281 C 46.457031 1.976562 46.476562 1.964844 46.492188 1.953125 C 46.507812 1.941406 46.523438 1.929688 46.542969 1.917969 C 46.578125 1.898438 46.613281 1.875 46.648438 1.859375 L 46.699219 1.832031 L 46.753906 1.808594 C 46.789062 1.789062 46.824219 1.78125 46.863281 1.765625 C 47.011719 1.714844 47.167969 1.691406 47.320312 1.691406 C 47.472656 1.6875 47.617188 1.71875 47.742188 1.765625 C 47.757812 1.773438 47.773438 1.78125 47.789062 1.785156 L 47.8125 1.796875 C 47.816406 1.796875 47.820312 1.800781 47.824219 1.800781 L 47.835938 1.808594 C 47.863281 1.824219 47.894531 1.839844 47.917969 1.859375 C 47.933594 1.867188 47.945312 1.875 47.957031 1.886719 C 47.96875 1.894531 47.980469 1.902344 47.992188 1.914062 L 48.007812 1.925781 L 48.023438 1.941406 C 48.035156 1.953125 48.042969 1.964844 48.054688 1.972656 C 48.09375 2.019531 48.128906 2.070312 48.160156 2.125 C 48.191406 2.179688 48.214844 2.238281 48.234375 2.300781 C 48.253906 2.359375 48.261719 2.421875 48.265625 2.480469 C 48.269531 2.539062 48.265625 2.597656 48.257812 2.648438 C 48.246094 2.699219 48.230469 2.742188 48.210938 2.78125 C 48.203125 2.792969 48.199219 2.800781 48.191406 2.8125 L 48.183594 2.824219 C 48.179688 2.828125 48.175781 2.832031 48.175781 2.835938 L 48.164062 2.847656 C 48.160156 2.851562 48.160156 2.855469 48.15625 2.859375 C 48.148438 2.867188 48.140625 2.875 48.136719 2.878906 C 48.105469 2.90625 48.070312 2.929688 48.039062 2.945312 C 48.03125 2.949219 48.023438 2.953125 48.019531 2.953125 C 48.074219 2.628906 47.890625 2.300781 47.570312 2.179688 C 47.210938 2.046875 46.808594 2.230469 46.671875 2.59375 C 46.628906 2.71875 46.605469 2.851562 46.605469 2.980469 C 46.605469 3.105469 46.625 3.230469 46.65625 3.339844 C 46.726562 3.5625 46.84375 3.746094 46.992188 3.894531 C 47.066406 3.96875 47.148438 4.035156 47.238281 4.09375 C 47.332031 4.148438 47.433594 4.195312 47.542969 4.230469 C 47.570312 4.238281 47.597656 4.246094 47.625 4.253906 C 47.652344 4.257812 47.683594 4.265625 47.707031 4.269531 C 47.757812 4.277344 47.8125 4.285156 47.863281 4.285156 C 47.96875 4.292969 48.066406 4.28125 48.164062 4.265625 C 48.359375 4.230469 48.535156 4.160156 48.6875 4.070312 C 48.839844 3.976562 48.972656 3.863281 49.085938 3.734375 C 49.113281 3.699219 49.140625 3.667969 49.167969 3.632812 L 49.203125 3.578125 L 49.222656 3.550781 L 49.238281 3.523438 L 49.273438 3.46875 C 49.285156 3.449219 49.292969 3.429688 49.304688 3.410156 C 49.324219 3.375 49.339844 3.335938 49.359375 3.296875 C 49.425781 3.140625 49.464844 2.976562 49.484375 2.816406 C 49.503906 2.65625 49.5 2.5 49.480469 2.347656 C 49.460938 2.195312 49.421875 2.046875 49.371094 1.90625 C 49.265625 1.625 49.101562 1.367188 48.882812 1.152344 C 48.855469 1.125 48.828125 1.097656 48.796875 1.074219 L 48.753906 1.035156 L 48.707031 1 C 48.675781 0.976562 48.644531 0.957031 48.613281 0.933594 C 48.582031 0.914062 48.546875 0.894531 48.515625 0.875 C 48.453125 0.835938 48.386719 0.804688 48.320312 0.773438 L 48.292969 0.761719 C 48.285156 0.757812 48.277344 0.753906 48.269531 0.75 L 48.21875 0.730469 C 48.183594 0.71875 48.148438 0.707031 48.113281 0.695312 L 48.011719 0.664062 C 47.992188 0.660156 47.976562 0.65625 47.957031 0.652344 L 47.90625 0.640625 L 47.800781 0.617188 L 47.695312 0.605469 L 47.644531 0.597656 C 47.625 0.59375 47.609375 0.59375 47.589844 0.59375 L 47.488281 0.589844 C 47.453125 0.585938 47.417969 0.585938 47.382812 0.585938 L 47.332031 0.589844 C 47.3125 0.589844 47.296875 0.589844 47.277344 0.589844 C 47.210938 0.597656 47.140625 0.601562 47.074219 0.613281 C 47.042969 0.617188 47.007812 0.621094 46.972656 0.628906 L 46.875 0.648438 L 46.824219 0.660156 C 46.808594 0.664062 46.792969 0.667969 46.777344 0.671875 L 46.679688 0.699219 C 46.644531 0.707031 46.613281 0.722656 46.582031 0.730469 C 46.550781 0.742188 46.519531 0.753906 46.488281 0.765625 C 46.425781 0.792969 46.363281 0.816406 46.304688 0.851562 L 46.210938 0.894531 L 46.125 0.949219 C 46.066406 0.980469 46.011719 1.019531 45.957031 1.054688 C 45.929688 1.074219 45.90625 1.09375 45.878906 1.113281 C 45.851562 1.136719 45.824219 1.152344 45.800781 1.175781 C 45.601562 1.34375 45.425781 1.53125 45.277344 1.734375 C 45.128906 1.9375 45.003906 2.152344 44.90625 2.375 C 44.882812 2.429688 44.855469 2.484375 44.835938 2.542969 L 44.800781 2.625 L 44.769531 2.710938 C 44.75 2.769531 44.734375 2.828125 44.714844 2.882812 C 44.699219 2.941406 44.683594 3 44.667969 3.054688 C 44.609375 3.285156 44.566406 3.515625 44.539062 3.742188 C 44.480469 4.195312 44.46875 4.644531 44.472656 5.078125 C 44.472656 5.425781 44.480469 5.773438 44.496094 6.117188 " fill-opacity="1" fill-rule="nonzero"/></g></g></g><g clip-path="url(#33926af752)"><g clip-path="url(#f6ff35afa0)"><g clip-path="url(#654317525e)"><path fill="#ffffff" d="M 41.5625 10.550781 C 41.5625 10.613281 41.5625 10.675781 41.566406 10.738281 L 41.570312 10.832031 L 41.578125 10.925781 C 41.582031 10.988281 41.589844 11.050781 41.597656 11.113281 C 41.597656 11.144531 41.605469 11.175781 41.609375 11.207031 C 41.617188 11.242188 41.621094 11.273438 41.625 11.304688 C 41.675781 11.558594 41.753906 11.8125 41.859375 12.054688 C 41.96875 12.296875 42.109375 12.53125 42.273438 12.742188 C 42.441406 12.953125 42.628906 13.140625 42.832031 13.308594 C 42.933594 13.390625 43.039062 13.464844 43.148438 13.539062 C 43.160156 13.546875 43.175781 13.554688 43.1875 13.5625 L 43.230469 13.589844 L 43.3125 13.636719 C 43.363281 13.667969 43.417969 13.703125 43.476562 13.730469 L 43.644531 13.816406 C 43.699219 13.84375 43.757812 13.871094 43.8125 13.894531 C 43.84375 13.90625 43.871094 13.921875 43.898438 13.933594 L 43.988281 13.964844 C 44.046875 13.988281 44.105469 14.011719 44.164062 14.03125 L 44.339844 14.089844 L 44.386719 14.101562 C 44.402344 14.105469 44.414062 14.109375 44.429688 14.113281 L 44.519531 14.140625 C 44.640625 14.171875 44.761719 14.195312 44.886719 14.222656 C 44.945312 14.234375 45.007812 14.242188 45.070312 14.253906 L 45.160156 14.265625 C 45.339844 14.289062 45.519531 14.304688 45.699219 14.308594 C 45.828125 14.308594 45.960938 14.289062 46.089844 14.296875 C 46.089844 14.296875 46.085938 14.292969 46.089844 14.292969 C 46.125 14.292969 46.160156 14.289062 46.195312 14.285156 C 46.210938 14.285156 46.226562 14.285156 46.242188 14.28125 L 46.289062 14.277344 L 46.382812 14.265625 C 46.507812 14.25 46.632812 14.222656 46.757812 14.199219 C 46.820312 14.183594 46.882812 14.164062 46.945312 14.148438 C 46.976562 14.140625 47.007812 14.132812 47.039062 14.125 L 47.21875 14.0625 C 47.25 14.050781 47.28125 14.042969 47.3125 14.027344 L 47.398438 13.992188 L 47.441406 13.976562 L 47.488281 13.957031 C 47.542969 13.929688 47.601562 13.902344 47.660156 13.875 C 47.714844 13.84375 47.773438 13.816406 47.828125 13.785156 C 47.882812 13.753906 47.9375 13.722656 47.992188 13.6875 L 48.070312 13.636719 C 48.097656 13.617188 48.125 13.597656 48.148438 13.582031 L 48.226562 13.527344 L 48.300781 13.46875 C 48.328125 13.449219 48.351562 13.429688 48.378906 13.410156 L 48.449219 13.347656 C 48.644531 13.179688 48.820312 12.992188 48.972656 12.785156 C 48.992188 12.761719 49.011719 12.734375 49.027344 12.707031 L 49.082031 12.625 C 49.101562 12.601562 49.117188 12.570312 49.132812 12.542969 L 49.179688 12.460938 C 49.214844 12.402344 49.242188 12.347656 49.269531 12.289062 C 49.296875 12.230469 49.324219 12.171875 49.347656 12.109375 C 49.371094 12.050781 49.394531 11.988281 49.414062 11.925781 L 49.441406 11.832031 C 49.449219 11.800781 49.460938 11.769531 49.464844 11.738281 L 49.484375 11.644531 C 49.492188 11.613281 49.5 11.582031 49.503906 11.550781 L 49.515625 11.457031 C 49.519531 11.425781 49.527344 11.390625 49.527344 11.359375 C 49.550781 11.109375 49.539062 10.855469 49.488281 10.609375 C 49.441406 10.363281 49.355469 10.128906 49.234375 9.914062 C 49.207031 9.859375 49.167969 9.808594 49.136719 9.757812 L 49.109375 9.71875 C 49.101562 9.707031 49.09375 9.695312 49.082031 9.683594 L 49.027344 9.609375 C 49.015625 9.597656 49.007812 9.585938 48.996094 9.574219 L 48.964844 9.542969 C 48.945312 9.519531 48.925781 9.496094 48.902344 9.476562 C 48.863281 9.433594 48.8125 9.390625 48.765625 9.351562 C 48.714844 9.3125 48.664062 9.277344 48.609375 9.246094 C 48.554688 9.214844 48.496094 9.1875 48.4375 9.167969 C 48.375 9.148438 48.308594 9.132812 48.246094 9.128906 C 48.179688 9.125 48.117188 9.132812 48.054688 9.148438 C 48.023438 9.15625 48 9.183594 47.996094 9.21875 C 47.988281 9.261719 48.019531 9.304688 48.066406 9.308594 L 48.070312 9.3125 C 48.117188 9.316406 48.160156 9.332031 48.199219 9.347656 C 48.238281 9.367188 48.273438 9.390625 48.308594 9.417969 C 48.34375 9.449219 48.375 9.480469 48.402344 9.511719 C 48.433594 9.546875 48.460938 9.582031 48.484375 9.621094 C 48.511719 9.660156 48.53125 9.699219 48.554688 9.742188 C 48.5625 9.765625 48.574219 9.785156 48.582031 9.804688 L 48.597656 9.835938 C 48.605469 9.847656 48.609375 9.859375 48.613281 9.871094 C 48.648438 9.957031 48.675781 10.046875 48.699219 10.136719 C 48.78125 10.496094 48.753906 10.867188 48.648438 11.199219 C 48.644531 11.222656 48.636719 11.242188 48.628906 11.261719 L 48.605469 11.324219 C 48.597656 11.34375 48.589844 11.363281 48.582031 11.382812 L 48.554688 11.441406 C 48.535156 11.480469 48.515625 11.515625 48.496094 11.554688 C 48.476562 11.589844 48.453125 11.625 48.433594 11.660156 L 48.359375 11.765625 C 48.332031 11.800781 48.308594 11.835938 48.28125 11.867188 L 48.238281 11.914062 C 48.222656 11.929688 48.210938 11.949219 48.195312 11.964844 L 48.152344 12.007812 C 48.136719 12.023438 48.121094 12.039062 48.105469 12.054688 C 47.859375 12.292969 47.5625 12.476562 47.242188 12.609375 C 47.203125 12.628906 47.160156 12.640625 47.121094 12.65625 C 47.078125 12.671875 47.039062 12.683594 46.996094 12.699219 L 46.964844 12.707031 L 46.933594 12.71875 L 46.871094 12.734375 C 46.851562 12.742188 46.832031 12.746094 46.808594 12.75 L 46.746094 12.761719 L 46.6875 12.777344 C 46.664062 12.78125 46.644531 12.785156 46.621094 12.789062 L 46.496094 12.808594 L 46.367188 12.820312 C 46.347656 12.824219 46.324219 12.828125 46.304688 12.828125 L 46.238281 12.832031 C 45.914062 12.84375 45.597656 12.84375 45.285156 12.75 C 45.285156 12.753906 45.285156 12.753906 45.285156 12.753906 C 45.253906 12.746094 45.222656 12.742188 45.191406 12.734375 C 45.105469 12.710938 45.019531 12.691406 44.933594 12.664062 C 44.847656 12.640625 44.765625 12.609375 44.683594 12.578125 C 44.660156 12.574219 44.640625 12.5625 44.621094 12.554688 L 44.558594 12.53125 L 44.496094 12.503906 C 44.476562 12.496094 44.457031 12.488281 44.4375 12.476562 L 44.316406 12.425781 C 44.277344 12.402344 44.238281 12.382812 44.199219 12.363281 C 44.179688 12.355469 44.160156 12.34375 44.140625 12.332031 L 44.085938 12.300781 L 44.027344 12.269531 L 44 12.253906 C 43.992188 12.25 43.980469 12.242188 43.972656 12.238281 C 43.9375 12.214844 43.902344 12.195312 43.867188 12.171875 C 43.832031 12.148438 43.796875 12.125 43.765625 12.101562 C 43.632812 12.003906 43.507812 11.902344 43.398438 11.789062 C 43.285156 11.671875 43.1875 11.550781 43.097656 11.414062 C 43.011719 11.277344 42.9375 11.128906 42.875 10.972656 C 42.8125 10.8125 42.765625 10.644531 42.730469 10.464844 C 42.695312 10.285156 42.679688 10.101562 42.671875 9.910156 C 42.664062 9.71875 42.671875 9.523438 42.691406 9.328125 C 42.695312 9.277344 42.699219 9.226562 42.707031 9.179688 L 42.726562 9.039062 L 42.753906 8.898438 C 42.765625 8.851562 42.777344 8.804688 42.789062 8.757812 C 42.886719 8.390625 43.0625 8.039062 43.300781 7.730469 C 43.539062 7.421875 43.84375 7.15625 44.183594 6.949219 C 44.253906 6.90625 44.324219 6.867188 44.394531 6.828125 C 44.398438 6.613281 44.386719 6.402344 44.367188 6.191406 C 44.199219 6.273438 44.039062 6.359375 43.882812 6.457031 C 43.496094 6.691406 43.132812 6.976562 42.816406 7.316406 C 42.5 7.65625 42.234375 8.046875 42.035156 8.480469 L 41.964844 8.644531 L 41.898438 8.808594 L 41.839844 8.980469 L 41.789062 9.144531 C 41.722656 9.367188 41.671875 9.59375 41.628906 9.828125 C 41.589844 10.0625 41.566406 10.304688 41.5625 10.550781 " fill-opacity="1" fill-rule="nonzero"/></g></g></g><g clip-path="url(#a680e4661b)"><g clip-path="url(#b09d3ff9c0)"><g clip-path="url(#bec697d18d)"><path fill="#ffffff" d="M 45.714844 15.933594 C 45.730469 16.039062 45.742188 16.148438 45.757812 16.253906 L 45.800781 16.570312 L 45.84375 16.890625 L 45.890625 17.207031 C 45.921875 17.417969 45.953125 17.632812 45.984375 17.84375 L 46.179688 19.097656 C 46.261719 18.976562 46.347656 18.855469 46.433594 18.738281 C 46.496094 18.648438 46.5625 18.5625 46.621094 18.46875 C 46.65625 18.410156 46.6875 18.351562 46.722656 18.289062 L 46.625 17.738281 C 46.585938 17.527344 46.550781 17.320312 46.511719 17.109375 L 46.457031 16.792969 L 46.40625 16.480469 L 46.355469 16.164062 C 46.339844 16.0625 46.324219 15.957031 46.308594 15.851562 L 46.21875 15.222656 L 46.128906 14.585938 L 46.109375 14.441406 C 46.101562 14.441406 46.09375 14.4375 46.085938 14.4375 C 45.898438 14.410156 45.710938 14.417969 45.523438 14.425781 C 45.5625 14.714844 45.601562 15.007812 45.636719 15.296875 L 45.714844 15.933594 " fill-opacity="1" fill-rule="nonzero"/></g></g></g><g clip-path="url(#a9144c26fd)"><path fill="#ffd0a6" d="M 85.523438 17.605469 C 85.523438 17.773438 85.488281 17.9375 85.425781 18.09375 C 85.359375 18.246094 85.269531 18.386719 85.148438 18.503906 C 85.03125 18.625 84.894531 18.714844 84.738281 18.78125 C 84.582031 18.84375 84.421875 18.875 84.25 18.875 C 84.082031 18.875 83.921875 18.84375 83.765625 18.78125 C 83.609375 18.714844 83.472656 18.625 83.351562 18.503906 C 83.234375 18.386719 83.140625 18.246094 83.078125 18.09375 C 83.011719 17.9375 82.980469 17.773438 82.980469 17.605469 C 82.980469 17.4375 83.011719 17.277344 83.078125 17.121094 C 83.140625 16.964844 83.234375 16.828125 83.351562 16.707031 C 83.472656 16.589844 83.609375 16.496094 83.765625 16.433594 C 83.921875 16.367188 84.082031 16.335938 84.25 16.335938 C 84.421875 16.335938 84.582031 16.367188 84.738281 16.433594 C 84.894531 16.496094 85.03125 16.589844 85.148438 16.707031 C 85.269531 16.828125 85.359375 16.964844 85.425781 17.121094 C 85.488281 17.277344 85.523438 17.4375 85.523438 17.605469 Z M 85.523438 17.605469 " fill-opacity="1" fill-rule="nonzero"/></g><g clip-path="url(#f52e6fb123)"><path fill="#fa9397" d="M 95.324219 17.605469 C 95.324219 17.773438 95.292969 17.9375 95.226562 18.09375 C 95.164062 18.246094 95.070312 18.386719 94.953125 18.503906 C 94.832031 18.625 94.695312 18.714844 94.539062 18.78125 C 94.386719 18.84375 94.222656 18.875 94.054688 18.875 C 93.886719 18.875 93.722656 18.84375 93.570312 18.78125 C 93.414062 18.714844 93.277344 18.625 93.15625 18.503906 C 93.039062 18.386719 92.945312 18.246094 92.882812 18.09375 C 92.816406 17.9375 92.785156 17.773438 92.785156 17.605469 C 92.785156 17.4375 92.816406 17.277344 92.882812 17.121094 C 92.945312 16.964844 93.039062 16.828125 93.15625 16.707031 C 93.277344 16.589844 93.414062 16.496094 93.570312 16.433594 C 93.722656 16.367188 93.886719 16.335938 94.054688 16.335938 C 94.222656 16.335938 94.386719 16.367188 94.539062 16.433594 C 94.695312 16.496094 94.832031 16.589844 94.953125 16.707031 C 95.070312 16.828125 95.164062 16.964844 95.226562 17.121094 C 95.292969 17.277344 95.324219 17.4375 95.324219 17.605469 Z M 95.324219 17.605469 " fill-opacity="1" fill-rule="nonzero"/></g><g clip-path="url(#fb14309575)"><path fill="#e4d1c1" d="M 77.449219 17.605469 C 77.449219 17.773438 77.414062 17.9375 77.351562 18.09375 C 77.285156 18.246094 77.195312 18.386719 77.074219 18.503906 C 76.957031 18.625 76.820312 18.714844 76.664062 18.78125 C 76.507812 18.84375 76.347656 18.875 76.179688 18.875 C 76.007812 18.875 75.847656 18.84375 75.691406 18.78125 C 75.535156 18.714844 75.398438 18.625 75.28125 18.503906 C 75.160156 18.386719 75.070312 18.246094 75.003906 18.09375 C 74.941406 17.9375 74.90625 17.773438 74.90625 17.605469 C 74.90625 17.4375 74.941406 17.277344 75.003906 17.121094 C 75.070312 16.964844 75.160156 16.828125 75.28125 16.707031 C 75.398438 16.589844 75.535156 16.496094 75.691406 16.433594 C 75.847656 16.367188 76.007812 16.335938 76.179688 16.335938 C 76.347656 16.335938 76.507812 16.367188 76.664062 16.433594 C 76.820312 16.496094 76.957031 16.589844 77.074219 16.707031 C 77.195312 16.828125 77.285156 16.964844 77.351562 17.121094 C 77.414062 17.277344 77.449219 17.4375 77.449219 17.605469 Z M 77.449219 17.605469 " fill-opacity="1" fill-rule="nonzero"/></g><g clip-path="url(#b73944cc41)"><path fill="#95c4be" d="M 65.984375 17.058594 C 65.984375 17.226562 65.953125 17.390625 65.886719 17.546875 C 65.824219 17.699219 65.730469 17.839844 65.613281 17.957031 C 65.492188 18.078125 65.355469 18.167969 65.199219 18.234375 C 65.042969 18.296875 64.882812 18.328125 64.714844 18.328125 C 64.546875 18.328125 64.382812 18.296875 64.226562 18.234375 C 64.074219 18.167969 63.933594 18.078125 63.816406 17.957031 C 63.695312 17.839844 63.605469 17.699219 63.539062 17.546875 C 63.476562 17.390625 63.445312 17.226562 63.445312 17.058594 C 63.445312 16.890625 63.476562 16.730469 63.539062 16.574219 C 63.605469 16.417969 63.695312 16.28125 63.816406 16.160156 C 63.933594 16.042969 64.074219 15.949219 64.226562 15.886719 C 64.382812 15.820312 64.546875 15.789062 64.714844 15.789062 C 64.882812 15.789062 65.042969 15.820312 65.199219 15.886719 C 65.355469 15.949219 65.492188 16.042969 65.613281 16.160156 C 65.730469 16.28125 65.824219 16.417969 65.886719 16.574219 C 65.953125 16.730469 65.984375 16.890625 65.984375 17.058594 Z M 65.984375 17.058594 " fill-opacity="1" fill-rule="nonzero"/></g></svg>