<svg width="333" height="53" viewBox="0 0 333 53" fill="none" xmlns="http://www.w3.org/2000/svg">
<mask id="mask0_85_2895" style="mask-type:luminance" maskUnits="userSpaceOnUse" x="6" y="2" width="46" height="48">
<path d="M6.86621 2.15872H51.4235V49.7504H6.86621V2.15872Z" fill="white"/>
</mask>
<g mask="url(#mask0_85_2895)">
<path fill-rule="evenodd" clip-rule="evenodd" d="M9.12128 0.633972C22.2436 0.633972 35.366 0.633972 48.4883 0.633972H52.4582V51.9168H5.15137V0.633972H9.12128ZM9.12128 1.31701C22.2436 1.31701 35.366 1.31701 48.4883 1.31701H51.709V51.2338H5.90055V1.31701H9.12128Z" fill="black"/>
</g>
<path fill-rule="evenodd" clip-rule="evenodd" d="M8.75049 19.8003V3.92493C22.12 3.92493 35.4895 3.92493 48.859 3.92493V48.6189C35.4895 48.6189 22.12 48.6189 8.75049 48.6189V19.8003Z" fill="black"/>
<path fill-rule="evenodd" clip-rule="evenodd" d="M34.9722 47.9221L27.9284 28.9006L27.8125 47.9221C30.1991 47.9221 32.5857 47.9221 34.9722 47.9221Z" fill="#C6DADB"/>
<path fill-rule="evenodd" clip-rule="evenodd" d="M21.9116 47.9221C23.6803 47.9221 25.4413 47.9221 27.2023 47.9221L27.3027 30.9773L21.9116 47.9221Z" fill="#0B4F6C"/>
<path fill-rule="evenodd" clip-rule="evenodd" d="M21.2787 47.9221L26.5462 31.3499L17.7104 47.9221C18.8999 47.9221 20.0893 47.9221 21.2787 47.9221Z" fill="#95C4BE"/>
<path fill-rule="evenodd" clip-rule="evenodd" d="M17.5228 48.8693L27.0459 31L10 47.6205V48.8693C12.5102 48.8693 15.0126 48.8693 17.5228 48.8693Z" fill="#DCC6BC"/>
<path fill-rule="evenodd" clip-rule="evenodd" d="M9.50781 41.0986V45.8523L27.7432 28.0726L27.5964 27.9001L9.50781 41.0986Z" fill="#0B4F6C"/>
<path fill-rule="evenodd" clip-rule="evenodd" d="M9.50781 40.3811L26.8936 27.6931L9.50781 32.8539V40.3811Z" fill="#95C4BE"/>
<path fill-rule="evenodd" clip-rule="evenodd" d="M10 26.0483V31.0572L27.0382 26L10 26.0483Z" fill="#DCC6BC"/>
<path fill-rule="evenodd" clip-rule="evenodd" d="M9.50781 20.0004V26.6928L25.6501 26.6514L9.50781 20.0004Z" fill="#C6DADB"/>
<path fill-rule="evenodd" clip-rule="evenodd" d="M9.50781 13.2322V19.3864L25.1712 25.8373L9.50781 13.2322Z" fill="#0B4F6C"/>
<path fill-rule="evenodd" clip-rule="evenodd" d="M9.50781 12.487L25.4415 25.306L9.50781 6.14648V12.487Z" fill="#0B4F6C"/>
<path fill-rule="evenodd" clip-rule="evenodd" d="M17.9574 4.62177C15.1383 4.62177 12.3269 4.62177 9.50781 4.62177V5.22201L27.6427 27.0309L17.9574 4.62177Z" fill="#95C4BE"/>
<path fill-rule="evenodd" clip-rule="evenodd" d="M19.3679 4.62177C17.576 4.62177 15.7919 4.62177 14 4.62177L23.1447 25.7683L19.3679 4.62177Z" fill="#DCC6BC"/>
<path fill-rule="evenodd" clip-rule="evenodd" d="M24.5996 4.62177L28.2374 24.9748L28.5695 4.62177C27.2488 4.62177 25.9203 4.62177 24.5996 4.62177Z" fill="#C6DADB"/>
<path fill-rule="evenodd" clip-rule="evenodd" d="M36.0613 4.62177C33.7674 4.62177 31.4735 4.62177 29.1796 4.62177L28.832 25.9822L28.8629 25.9477L36.0613 4.62177Z" fill="#0B4F6C"/>
<path fill-rule="evenodd" clip-rule="evenodd" d="M42.3099 4.62177C40.4408 4.62177 38.5717 4.62177 36.7026 4.62177L30.4619 23.1189L42.3099 4.62177Z" fill="#95C4BE"/>
<path fill-rule="evenodd" clip-rule="evenodd" d="M43.0203 4.62177L30.3613 24.3815L48.1024 5.80155V4.62177C46.4109 4.62177 44.7117 4.62177 43.0203 4.62177Z" fill="#DCC6BC"/>
<path fill-rule="evenodd" clip-rule="evenodd" d="M48.1026 14.6879V6.65018L28.8169 26.8515V26.9412L48.1026 14.6879Z" fill="#C6DADB"/>
<path fill-rule="evenodd" clip-rule="evenodd" d="M48.1023 19.3657V15.3709L31.0796 26.1822L48.1023 19.3657Z" fill="#0B4F6C"/>
<path fill-rule="evenodd" clip-rule="evenodd" d="M48.1023 19.9728L30.9482 26.8445L48.1023 24.4436V19.9728Z" fill="#95C4BE"/>
<path fill-rule="evenodd" clip-rule="evenodd" d="M48.1022 30.6944V25.0162L30.1372 27.5276L48.1022 30.6944Z" fill="#DCC6BC"/>
<path fill-rule="evenodd" clip-rule="evenodd" d="M48.1023 31.2601L30.3999 28.1416L48.1023 39.4773V31.2601Z" fill="#C6DADB"/>
<path fill-rule="evenodd" clip-rule="evenodd" d="M48.1024 44.1206V40.1603L28.8012 27.8036L28.7935 28.0589L48.1024 44.1206Z" fill="#0B4F6C"/>
<path fill-rule="evenodd" clip-rule="evenodd" d="M48.1025 44.8794L29.8672 29.7009L45.0208 47.9221C46.0481 47.9221 47.0753 47.9221 48.1025 47.9221V44.8794Z" fill="#95C4BE"/>
<path fill-rule="evenodd" clip-rule="evenodd" d="M35.6136 47.9221C38.4945 47.9221 41.3676 47.9221 44.2485 47.9221L28.6855 29.2111L35.6136 47.9221Z" fill="#FFD0A6"/>
<path fill-rule="evenodd" clip-rule="evenodd" d="M30.5697 37.9801L28.1213 33.399L24.4835 32.916L22.0661 29.8665L20.4209 25.1887L18.2197 24.9956L20.2433 22.6636L22.9157 22.8775L24.4758 24.5678L31.4193 15.0122L32.1221 20.1591L37.8376 14.681L39.39 20.0487L39.0347 20.2488L38.2856 25.0921L37.3973 25.2163L36.177 28.3486L35.2038 28.3348L35.5978 28.4314L31.4039 30.5564L37.4591 32.6883L35.7599 34.5581L32.9331 36.6693L30.5697 37.9801Z" fill="black"/>
<path fill-rule="evenodd" clip-rule="evenodd" d="M32.6395 36.1794L31.0252 35.041L32.0602 36.5796L30.8322 37.2074L28.5228 32.8884L24.8232 32.3986L22.6143 29.6112L20.8765 24.6713L19.3936 24.5402L20.5135 23.2431L22.6143 23.4087L24.6533 25.6165L26.5919 26.265L37.5285 15.778L38.687 19.7934L35.4277 21.6494L38.324 20.8904L37.7448 24.6023L34.0915 25.1335L36.6943 25.3681L35.7521 27.7898L30.2915 27.7208L33.9834 28.6177L29.9671 30.6461L36.4395 32.9298L35.2809 34.1924L32.709 33.1299L34.8484 34.5856L33.7594 35.386L31.6277 33.9578L33.3269 35.6136L32.6395 36.1794ZM24.8387 25.0714L31.0175 16.5645L31.5736 20.6559L26.422 25.6027L24.8387 25.0714Z" fill="white"/>
<mask id="mask1_85_2895" style="mask-type:luminance" maskUnits="userSpaceOnUse" x="5" y="0" width="48" height="52">
<path d="M5.81071 1.28678H51.8306V50.6085H5.81071V1.28678Z" stroke="white" stroke-width="1.33333"/>
</mask>
<g mask="url(#mask1_85_2895)">
<path d="M5.14404 0.620117V51.2751H53.1305V0.620117H5.14404Z" stroke="white" stroke-width="3.87097"/>
<path d="M5.81071 1.28678H51.8306V50.6085H5.81071V1.28678Z" stroke="white" stroke-width="1.33333"/>
<path d="M5.81071 1.28678H51.8306V50.6085H5.81071V1.28678Z" fill="black" stroke="white" stroke-width="1.33333"/>
</g>
<path d="M93.0933 18.932C93.0933 20.0773 92.7689 21.0432 92.1356 21.8297C91.4945 22.6231 90.6063 23.1544 89.4787 23.4304L92.7843 29.5294C93.0933 30.1227 93.3482 30.5505 93.5567 30.8265C93.7807 31.1024 93.9969 31.2887 94.2055 31.3784C94.4295 31.475 94.6998 31.5164 95.0087 31.5164V31.9856H89.9112L85.3388 23.6235H84.5974V29.833C84.5974 30.516 84.7518 30.9644 85.0608 31.1852C85.3697 31.406 85.8795 31.5164 86.6055 31.5164V31.9856H78.6348V31.5164C79.3299 31.5164 79.8165 31.3922 80.0868 31.13C80.3726 30.8541 80.5193 30.4125 80.5193 29.8054V16.2274C80.5193 15.5858 80.3648 15.1442 80.0559 14.9028C79.7624 14.6475 79.3299 14.5164 78.7583 14.5164H78.6348V14.0472H86.6673C88.5827 14.0472 90.1274 14.4543 91.3014 15.2615C92.4908 16.055 93.0933 17.2761 93.0933 18.932ZM85.2461 22.8232C86.5437 22.8232 87.4705 22.5196 88.0266 21.9125C88.5827 21.2916 88.8608 20.2498 88.8608 18.794C88.8608 17.3589 88.5595 16.3792 87.9648 15.8411C87.3624 15.2891 86.3352 15.0132 84.8754 15.0132H84.5974V22.8232H85.2461Z" fill="white"/>
<path d="M110.202 13.6333L115.207 28.5911C115.469 29.3845 115.685 29.964 115.855 30.3297C116.018 30.7023 116.203 30.9851 116.411 31.1852C116.612 31.3715 116.89 31.4819 117.246 31.5164V31.9855H110.202V31.5164C110.711 31.5164 111.082 31.4612 111.314 31.3508C111.538 31.2404 111.654 31.061 111.654 30.7989C111.654 30.654 111.623 30.4539 111.561 30.1917C111.499 29.9157 111.445 29.6881 111.407 29.5018L110.82 27.7355H105.815L105.166 29.695C104.996 30.1365 104.919 30.4539 104.919 30.6333C104.919 30.9506 105.027 31.1783 105.259 31.3232C105.506 31.4543 105.884 31.5164 106.402 31.5164V31.9855H102.231V31.5164C102.579 31.4612 102.864 31.3508 103.096 31.1852C103.32 31.0196 103.513 30.7575 103.683 30.3849C103.868 30.0192 104.1 29.4466 104.394 28.6739L109.646 13.6333H110.202ZM110.48 26.742L108.379 20.505H108.348L106.155 26.742H110.48Z" fill="white"/>
<path d="M132.421 14.5164H132.174C131.123 14.5164 130.598 15.0821 130.598 16.1998V29.7778C130.598 30.4263 130.737 30.8748 131.031 31.13C131.34 31.3922 131.803 31.5164 132.421 31.5164V31.9856H124.759V31.5164C125.416 31.5164 125.871 31.3784 126.119 31.1024C126.381 30.8127 126.52 30.3711 126.52 29.7778V16.1998C126.52 15.6134 126.374 15.1925 126.088 14.9304C125.817 14.6544 125.377 14.5164 124.759 14.5164V14.0472H132.421V14.5164Z" fill="white"/>
<path d="M145.239 13.6333C145.811 13.6333 146.32 13.7023 146.753 13.8265C147.185 13.9575 147.68 14.13 148.236 14.3508C148.831 14.6268 149.24 14.7648 149.472 14.7648C149.734 14.7648 149.943 14.682 150.09 14.5164C150.252 14.337 150.368 14.0403 150.429 13.6333H150.985L151.14 19.4563H150.615C150.321 17.9868 149.727 16.807 148.823 15.9239C147.935 15.0407 146.907 14.5992 145.733 14.5992C144.907 14.5992 144.204 14.8476 143.633 15.3443C143.077 15.8411 142.799 16.4689 142.799 17.2209C142.799 17.7729 142.953 18.2558 143.262 18.656C143.586 19.0631 144.003 19.4149 144.498 19.7047C144.992 20.0014 145.679 20.3601 146.568 20.781C147.695 21.3329 148.622 21.8435 149.348 22.2989C150.066 22.7611 150.684 23.3752 151.202 24.1479C151.712 24.9206 151.974 25.8727 151.974 26.9904C151.974 28.0253 151.727 28.9498 151.233 29.7778C150.738 30.5919 150.059 31.2266 149.194 31.682C148.344 32.1373 147.386 32.3719 146.32 32.3719C145.741 32.3719 145.224 32.3167 144.776 32.2063C144.32 32.0959 143.756 31.9303 143.077 31.7096C142.436 31.4543 141.98 31.3232 141.717 31.3232C141.2 31.3232 140.852 31.6751 140.667 32.3719H140.172V25.7209H140.698C140.883 26.8248 141.223 27.8114 141.717 28.6739C142.227 29.5432 142.868 30.2124 143.633 30.6885C144.39 31.1714 145.193 31.406 146.042 31.406C146.907 31.406 147.626 31.13 148.205 30.5781C148.777 30.0123 149.07 29.281 149.07 28.3979C149.07 27.7907 148.946 27.3147 148.699 26.9628C148.468 26.5971 148.089 26.2315 147.556 25.8589C147.185 25.6036 146.351 25.1276 145.054 24.4239L144.405 24.0651C143.022 23.3338 141.964 22.5679 141.223 21.7745C140.497 20.9673 140.142 19.9186 140.142 18.6284C140.142 17.6556 140.358 16.7932 140.79 16.0342C141.223 15.2822 141.818 14.6958 142.582 14.268C143.362 13.8472 144.251 13.6333 145.239 13.6333Z" fill="white"/>
<path d="M173.187 19.1804H172.662C172.515 17.9868 172.152 17.083 171.58 16.4758C171.024 15.8549 170.352 15.4547 169.572 15.2891C168.784 15.1097 167.857 15.0132 166.792 15.0132H165.772V22.3817C166.962 22.3472 167.827 21.9884 168.367 21.3054C168.923 20.6085 169.201 19.5943 169.201 18.2696H169.727V27.3768H169.201C169.201 26.0728 168.923 25.0793 168.367 24.3963C167.827 23.7201 166.962 23.3683 165.772 23.3476V29.0326C165.772 29.626 165.818 30.0537 165.927 30.3297C166.027 30.6057 166.205 30.792 166.452 30.8817C166.699 30.9782 167.054 31.0196 167.533 31.0196C168.807 31.0196 169.85 30.8748 170.653 30.5781C171.457 30.2676 172.113 29.7916 172.631 29.143C173.14 28.5014 173.619 27.6114 174.052 26.4661H174.577L173.619 31.9856H159.593V31.5164H159.902C160.497 31.5164 160.937 31.3991 161.231 31.1576C161.54 30.9024 161.694 30.4401 161.694 29.7778V16.255C161.694 15.5927 161.54 15.1442 161.231 14.9028C160.937 14.6475 160.458 14.5164 159.779 14.5164H159.593V14.0472H173.187V19.1804Z" fill="white"/>
<path d="M90.1845 38.99H90.2154L91.6057 35.5404H92.8723V35.6508C92.7256 35.6508 92.6097 35.6715 92.5325 35.706C92.4707 35.7267 92.4166 35.7819 92.378 35.8715C92.3317 35.9474 92.3162 36.0647 92.3162 36.2303V39.4868C92.3162 39.6731 92.3317 39.8111 92.378 39.9008C92.4166 39.9767 92.4707 40.0319 92.5325 40.0663C92.6097 40.087 92.7256 40.0939 92.8723 40.0939V40.2043H90.9569V40.0939C91.1191 40.0939 91.2426 40.087 91.3276 40.0663C91.428 40.0319 91.4975 39.9767 91.5439 39.9008C91.5825 39.8111 91.6057 39.6731 91.6057 39.4868V36.3131H91.5748L90.03 40.2043H89.9374L88.3926 36.3959H88.3618V39.4868C88.3618 39.6731 88.3772 39.8111 88.4235 39.9008C88.4622 39.9767 88.5239 40.0319 88.6089 40.0663C88.6861 40.087 88.8252 40.0939 89.0105 40.0939V40.2043H87.4658V40.0939C87.628 40.0939 87.7516 40.087 87.8366 40.0663C87.9138 40.0319 87.9756 39.9767 88.0219 39.9008C88.0605 39.8111 88.0837 39.6731 88.0837 39.4868V36.2303C88.0837 36.0647 88.0605 35.9474 88.0219 35.8715C87.9756 35.7819 87.9138 35.7267 87.8366 35.706C87.7516 35.6715 87.628 35.6508 87.4658 35.6508V35.5404H88.7943L90.1845 38.99Z" fill="white"/>
<path d="M102.74 36.5615H102.616C102.57 36.3407 102.524 36.1889 102.462 36.0923C102.4 35.9819 102.308 35.9129 102.184 35.8715C102.076 35.8163 101.921 35.7888 101.721 35.7888H100.639V37.6378H101.473C101.674 37.6378 101.829 37.6102 101.937 37.555C102.037 37.4998 102.099 37.4308 102.122 37.3342C102.161 37.2238 102.184 37.0858 102.184 36.9202H102.308V38.5485H102.184C102.184 38.3277 102.138 38.1621 102.06 38.0517C101.999 37.9413 101.852 37.8862 101.628 37.8862H100.639V39.5972C100.639 39.7283 100.655 39.818 100.701 39.8732C100.74 39.9284 100.832 39.956 100.979 39.956H101.782C102.107 39.956 102.354 39.8732 102.524 39.7076C102.686 39.542 102.833 39.3143 102.956 39.0176L103.08 39.0452L102.678 40.2043H99.249V40.0939C99.4344 40.0939 99.5657 40.087 99.6506 40.0663C99.7279 40.0319 99.7897 39.9767 99.836 39.9008C99.8746 39.8111 99.8978 39.6731 99.8978 39.4868V36.2303C99.8978 36.0647 99.8746 35.9474 99.836 35.8715C99.8128 35.7819 99.7588 35.7267 99.6815 35.706C99.5966 35.6715 99.473 35.6508 99.3108 35.6508H99.249V35.5404H102.678L102.74 36.5615Z" fill="white"/>
<path d="M111.676 35.6508C111.491 35.6508 111.344 35.6715 111.243 35.706C111.159 35.7267 111.097 35.7819 111.058 35.8715C111.012 35.9474 110.996 36.0647 110.996 36.2303V39.5972C110.996 39.749 111.012 39.8456 111.058 39.9008C111.097 39.9422 111.189 39.956 111.336 39.956H111.954C112.24 39.956 112.456 39.9284 112.603 39.8732C112.765 39.8042 112.889 39.7007 112.974 39.5696C113.074 39.4247 113.167 39.2108 113.252 38.9349L113.375 38.9625L113.004 40.2043H109.575V40.0939C109.776 40.0939 109.923 40.087 110.008 40.0663C110.108 40.0319 110.178 39.9767 110.224 39.9008C110.263 39.8111 110.286 39.68 110.286 39.5144V36.2303C110.286 36.0647 110.255 35.9474 110.193 35.8715C110.147 35.7819 110.077 35.7267 109.977 35.706C109.892 35.6715 109.761 35.6508 109.575 35.6508V35.5404H111.676V35.6508Z" fill="white"/>
<path d="M122.003 35.43C122.435 35.43 122.806 35.5542 123.115 35.7888C123.424 36.0096 123.655 36.3131 123.825 36.6995C123.987 37.0721 124.072 37.4584 124.072 37.8586C124.072 38.2864 123.987 38.6865 123.825 39.0729C123.655 39.4454 123.424 39.749 123.115 39.9836C122.806 40.2044 122.435 40.3148 122.003 40.3148C121.57 40.3148 121.199 40.2044 120.89 39.9836C120.581 39.7628 120.342 39.473 120.18 39.1005C120.01 38.7141 119.933 38.3002 119.933 37.8586C119.933 37.4584 120.002 37.0721 120.149 36.6995C120.311 36.3131 120.551 36.0096 120.859 35.7888C121.168 35.5542 121.547 35.43 122.003 35.43ZM120.767 37.8586C120.767 38.6313 120.859 39.1971 121.045 39.542C121.246 39.8939 121.57 40.0664 122.003 40.0664C122.435 40.0664 122.744 39.887 122.929 39.5144C123.115 39.1488 123.207 38.5968 123.207 37.8586C123.207 37.0859 123.099 36.5339 122.898 36.2028C122.713 35.8578 122.404 35.6784 121.972 35.6784C121.616 35.6784 121.354 35.8026 121.168 36.0372C120.998 36.2579 120.89 36.527 120.829 36.8375C120.782 37.1549 120.767 37.4929 120.767 37.8586Z" fill="white"/>
<path d="M135.137 37.8862C135.137 38.3691 135.013 38.7831 134.766 39.128C134.534 39.4799 134.225 39.749 133.839 39.9284C133.469 40.1146 133.067 40.2043 132.634 40.2043H130.564V40.0939C130.75 40.0939 130.881 40.087 130.966 40.0663C131.043 40.0319 131.105 39.9767 131.151 39.9008C131.19 39.8111 131.213 39.6731 131.213 39.4868V36.2303C131.213 36.0509 131.19 35.9198 131.151 35.8439C131.105 35.775 131.043 35.7267 130.966 35.706C130.881 35.6715 130.75 35.6508 130.564 35.6508V35.5404H132.573C133.082 35.5404 133.538 35.6439 133.932 35.8439C134.318 36.0302 134.619 36.3062 134.828 36.6719C135.029 37.0237 135.137 37.4308 135.137 37.8862ZM131.955 35.8715V39.8732C132.14 39.9491 132.356 39.9836 132.603 39.9836C133.136 39.9836 133.546 39.8111 133.839 39.4592C134.125 39.0935 134.272 38.5761 134.272 37.9138C134.272 37.2721 134.117 36.7547 133.808 36.3683C133.515 35.9819 133.082 35.7888 132.511 35.7888C132.325 35.7888 132.14 35.8163 131.955 35.8715Z" fill="white"/>
<path d="M143.635 35.6508C143.465 35.6508 143.334 35.6715 143.233 35.706C143.148 35.7267 143.087 35.7819 143.048 35.8715C143.002 35.9474 142.986 36.0647 142.986 36.2303V39.4868C142.986 39.6731 143.002 39.8111 143.048 39.9008C143.087 39.9767 143.148 40.0319 143.233 40.0663C143.311 40.087 143.45 40.0939 143.635 40.0939V40.2043H141.627V40.0939C141.789 40.0939 141.913 40.087 141.998 40.0663C142.098 40.0319 142.168 39.9767 142.214 39.9008C142.253 39.8111 142.276 39.6731 142.276 39.4868V36.2303C142.276 36.0647 142.245 35.9474 142.183 35.8715C142.137 35.7819 142.075 35.7267 141.998 35.706C141.913 35.6715 141.789 35.6508 141.627 35.6508V35.5404H143.635V35.6508Z" fill="white"/>
<path d="M153.495 36.5615H153.371C153.325 36.3407 153.279 36.1889 153.217 36.0923C153.155 35.9819 153.062 35.9129 152.939 35.8715C152.831 35.8163 152.676 35.7888 152.475 35.7888H151.394V37.6378H152.228C152.429 37.6378 152.584 37.6102 152.692 37.555C152.792 37.4998 152.854 37.4308 152.877 37.3342C152.916 37.2238 152.939 37.0858 152.939 36.9202H153.062V38.5485H152.939C152.939 38.3277 152.893 38.1621 152.815 38.0517C152.753 37.9413 152.607 37.8862 152.383 37.8862H151.394V39.5972C151.394 39.7283 151.41 39.818 151.456 39.8732C151.495 39.9284 151.587 39.956 151.734 39.956H152.537C152.862 39.956 153.109 39.8732 153.279 39.7076C153.441 39.542 153.588 39.3143 153.711 39.0176L153.835 39.0452L153.433 40.2043H150.004V40.0939C150.189 40.0939 150.321 40.087 150.406 40.0663C150.483 40.0319 150.545 39.9767 150.591 39.9008C150.63 39.8111 150.653 39.6731 150.653 39.4868V36.2303C150.653 36.0647 150.63 35.9474 150.591 35.8715C150.568 35.7819 150.514 35.7267 150.436 35.706C150.351 35.6715 150.228 35.6508 150.066 35.6508H150.004V35.5404H153.433L153.495 36.5615Z" fill="white"/>
<path d="M161.69 35.43C161.852 35.43 161.998 35.4507 162.122 35.4852C162.246 35.5059 162.369 35.5404 162.493 35.5956C162.593 35.6508 162.663 35.6784 162.709 35.6784C162.848 35.6784 162.941 35.5956 162.987 35.43H163.111V36.9479H162.987C162.987 36.6719 162.91 36.4442 162.771 36.2579C162.647 36.0579 162.493 35.9199 162.307 35.844C162.122 35.7543 161.937 35.706 161.751 35.706C161.543 35.706 161.365 35.7612 161.226 35.8716C161.079 35.982 161.01 36.1338 161.01 36.3131C161.01 36.4787 161.048 36.6305 161.133 36.7547C161.234 36.8858 161.365 37.0169 161.535 37.1411C161.597 37.1963 161.782 37.3066 162.091 37.4722C162.354 37.6585 162.57 37.8172 162.74 37.9414C162.902 38.0518 163.033 38.1829 163.142 38.3278C163.219 38.4243 163.281 38.5347 163.327 38.6589C163.366 38.79 163.389 38.9211 163.389 39.0453C163.389 39.2661 163.311 39.4799 163.172 39.68C163.049 39.887 162.871 40.0388 162.647 40.1492C162.439 40.2596 162.199 40.3148 161.937 40.3148C161.79 40.3148 161.666 40.2941 161.566 40.2596C161.458 40.2389 161.334 40.2044 161.195 40.1492C161.048 40.094 160.948 40.0664 160.886 40.0664C160.716 40.0664 160.624 40.1423 160.608 40.2872H160.454V38.7417H160.608C160.608 39.0177 160.67 39.2592 160.794 39.4592C160.933 39.6662 161.103 39.8111 161.288 39.9008C161.473 39.9974 161.666 40.0388 161.875 40.0388C162.122 40.0388 162.315 39.9767 162.462 39.8456C162.601 39.7007 162.678 39.5144 162.678 39.2937C162.678 39.0177 162.562 38.7693 162.338 38.5485C162.192 38.4588 161.968 38.314 161.659 38.107C161.327 37.9069 161.103 37.7482 160.979 37.6378C160.794 37.4929 160.647 37.3342 160.546 37.1687C160.461 37.0031 160.423 36.8237 160.423 36.6167C160.423 36.2717 160.531 35.982 160.763 35.7612C161.01 35.5404 161.319 35.43 161.69 35.43Z" fill="white"/>
<mask id="mask2_85_2895" style="mask-type:luminance" maskUnits="userSpaceOnUse" x="59" y="8" width="19" height="44">
<path d="M59.3169 8.84418H77.112V51.2338H59.3169V8.84418Z" fill="white"/>
</mask>
<g mask="url(#mask2_85_2895)">
<mask id="mask3_85_2895" style="mask-type:luminance" maskUnits="userSpaceOnUse" x="53" y="0" width="25" height="52">
<path d="M75.0111 51.4477L53.501 50.606L55.9648 0.654663L77.4749 1.50328L75.0111 51.4477Z" fill="white"/>
</mask>
<g mask="url(#mask3_85_2895)">
<mask id="mask4_85_2895" style="mask-type:luminance" maskUnits="userSpaceOnUse" x="53" y="0" width="25" height="52">
<path d="M75.0111 51.4477L53.501 50.606L55.9648 0.654663L77.4749 1.50328L75.0111 51.4477Z" fill="white"/>
</mask>
<g mask="url(#mask4_85_2895)">
<path d="M67.0712 9.8308C66.1599 9.7756 65.2562 9.7963 64.368 9.89289C63.7115 9.96878 63.0627 10.0861 62.4294 10.2379C62.3908 10.4172 62.4139 10.6035 62.4217 10.776C62.4294 10.983 62.4294 11.1831 62.4217 11.3831C63.8737 11.0796 65.3952 11.0934 66.8164 11.3969C67.5733 11.5556 68.2993 11.7971 68.9712 12.1076C69.3034 12.2663 69.62 12.4387 69.9135 12.6319C70.2147 12.8182 70.4928 13.0252 70.7477 13.246C70.879 13.3564 70.9948 13.4668 71.1107 13.584C71.1261 13.5978 71.1416 13.6116 71.157 13.6254L71.2034 13.6737L71.2883 13.7703C71.3424 13.8255 71.4042 13.8876 71.4582 13.9497C71.6822 14.205 71.8753 14.4672 72.0607 14.7362C72.246 14.9984 72.4005 15.2813 72.5473 15.5642C72.6863 15.847 72.8021 16.1437 72.9025 16.4404L72.9721 16.6612C72.9952 16.737 73.0107 16.8129 73.0338 16.8888C73.0416 16.9302 73.057 16.9647 73.0647 17.0061L73.0879 17.1234L73.1188 17.2338L73.1265 17.2959L73.142 17.3511L73.2192 17.8202C73.2269 17.8961 73.2347 17.9789 73.2424 18.0548C73.2501 18.1307 73.2655 18.2135 73.2655 18.2894L73.281 18.5309L73.2887 18.7724C73.2887 18.8482 73.2887 18.931 73.281 19.0138C73.281 19.0897 73.281 19.1725 73.2733 19.2553L73.2578 19.4968L73.2347 19.7383C73.2347 19.8211 73.2192 19.9038 73.2038 19.9797C73.196 20.0625 73.1883 20.1453 73.1729 20.2212C73.0647 20.8698 72.8794 21.5114 72.6399 22.1461L72.5395 22.3807C72.5086 22.4566 72.4777 22.5325 72.4391 22.6084L72.3928 22.7257L72.3387 22.843C72.3001 22.9189 72.2615 22.9948 72.2229 23.0707L72.107 23.2983L72.0761 23.3535L72.0452 23.4156L71.9757 23.5329L71.7131 24.0021C71.3424 24.6299 70.9408 25.2439 70.5082 25.8511C70.0757 26.4582 69.62 27.0654 69.1412 27.6656C68.1912 28.8592 67.1717 30.0528 66.1521 31.274C65.8046 31.7017 65.4493 32.1364 65.1017 32.578C65.0554 32.6469 65.0091 32.7228 64.955 32.7918C64.8469 32.9436 64.7233 33.0954 64.6074 33.2403C64.3757 33.5232 64.144 33.806 63.9278 34.1096C63.92 34.1234 63.9123 34.1372 63.8969 34.151C63.8969 34.1579 63.8969 34.1579 63.8891 34.1648C63.6652 34.4684 63.4489 34.7788 63.2404 35.0893C63.0164 35.4274 62.8001 35.7655 62.5916 36.1035C62.4834 36.276 62.383 36.4554 62.2826 36.6279C62.2672 36.6486 62.2517 36.6693 62.2363 36.6969L62.1977 36.7659C62.1745 36.8142 62.1436 36.8624 62.1204 36.9107C62.0741 37.0073 62.02 37.1039 61.9737 37.2005C61.7961 37.5869 61.6493 37.9732 61.518 38.3596C61.3867 38.746 61.2863 39.1323 61.1936 39.5187C61.0082 40.2914 60.8769 41.0642 60.7765 41.8369C60.6839 42.6096 60.6298 43.3823 60.6221 44.1689C60.6221 44.362 60.6221 44.5621 60.6298 44.7622C60.6298 44.8105 60.6298 44.8588 60.6375 44.9071C60.6375 44.9554 60.6375 45.0106 60.6452 45.0589C60.6452 45.1141 60.653 45.1624 60.653 45.2107C60.6607 45.2659 60.6684 45.3142 60.6684 45.3625C60.7148 45.7695 60.7843 46.1559 60.8692 46.5491C60.9542 46.9355 61.0623 47.3219 61.1859 47.7013C61.2168 47.7979 61.2554 47.8945 61.294 47.9911C61.3249 48.0877 61.3635 48.1843 61.4022 48.274C61.4871 48.4672 61.5721 48.6534 61.6725 48.8397C61.7652 49.026 61.8733 49.2123 61.9969 49.3986C62.1204 49.578 62.2595 49.7573 62.4217 49.9298C62.5839 50.1023 62.7615 50.2748 62.9778 50.4266L63.14 50.5439C63.2017 50.5784 63.2558 50.6129 63.3176 50.6474C63.3485 50.6681 63.3794 50.6819 63.4103 50.6956L63.4952 50.737C63.5261 50.7577 63.557 50.7646 63.5879 50.7784L63.6806 50.8198C63.7424 50.8474 63.8119 50.875 63.8814 50.8957C63.9509 50.9233 64.0204 50.944 64.0977 50.9578L64.2058 50.9854C64.2444 50.9923 64.283 51.0061 64.3217 51.0061C64.4066 51.0199 64.4839 51.0337 64.5688 51.0337C64.731 51.0475 64.9009 51.0337 65.0708 51.013C65.1558 50.9992 65.2485 50.9854 65.3257 50.9578C65.3721 50.9509 65.4107 50.9371 65.4493 50.9233C65.4879 50.9095 65.5343 50.8957 65.5729 50.8819C65.7274 50.8198 65.8818 50.7508 66.0131 50.6612C66.0826 50.6198 66.1444 50.5784 66.2062 50.5301C66.2371 50.5025 66.268 50.4818 66.2989 50.4542C66.3221 50.4335 66.353 50.4059 66.3839 50.3852C66.6001 50.1851 66.7778 49.9643 66.9091 49.7297C67.0481 49.5021 67.133 49.2606 67.1871 49.0191C67.2412 48.7776 67.2643 48.5293 67.2721 48.2809L67.2643 47.1218C67.2643 46.9286 67.2566 46.7354 67.2412 46.5422L67.218 45.9627C67.2025 45.5763 67.1717 45.1969 67.1408 44.8174C67.0095 43.2857 66.8009 41.7679 66.546 40.2638L66.3452 39.1392C66.3143 38.953 66.2757 38.7667 66.2371 38.5804L66.129 38.0215C66.0595 37.6421 65.9822 37.2695 65.905 36.9038L65.7969 36.345C65.766 36.1932 65.7273 36.0483 65.7042 35.8965C65.5806 36.0897 65.3875 36.276 65.2408 36.4554C65.0399 36.69 64.8778 36.9314 64.6692 37.166C64.5997 37.2488 64.4607 37.3385 64.4839 37.4558C64.5225 37.7111 64.5611 37.9732 64.5997 38.2285L64.6769 38.7874C64.7001 38.9737 64.731 39.1599 64.7542 39.3393L64.8932 40.457C65.0708 41.9404 65.2021 43.4237 65.2562 44.9071C65.2639 45.2728 65.2871 45.6453 65.2794 46.011V46.5698C65.2794 46.7492 65.2871 46.9355 65.2794 47.1218L65.233 48.2119C65.2253 48.343 65.1944 48.4741 65.1481 48.5982C65.1095 48.7155 65.0631 48.8397 65.0168 48.9501C64.9782 49.0674 64.9318 49.164 64.8778 49.2537C64.8237 49.3434 64.7773 49.4124 64.7233 49.4745C64.7156 49.4814 64.7078 49.4883 64.7001 49.4952C64.6924 49.5021 64.6847 49.509 64.6847 49.5159C64.6692 49.5297 64.6538 49.5366 64.6383 49.5504C64.5997 49.5711 64.5611 49.5987 64.5147 49.6125C64.4761 49.6263 64.4221 49.6331 64.3603 49.64C64.3294 49.64 64.2985 49.6469 64.2676 49.64H64.2135C64.1981 49.6331 64.1826 49.6331 64.1595 49.6331C64.1286 49.6262 64.0899 49.6194 64.0591 49.6125L63.9973 49.5918C63.9818 49.5918 63.9587 49.5849 63.9509 49.578C63.92 49.5642 63.8814 49.5573 63.8505 49.5435L63.7578 49.4952C63.6343 49.4262 63.5107 49.3227 63.4103 49.2054C63.3021 49.0881 63.2017 48.957 63.1168 48.8121C63.0241 48.6672 62.9391 48.5224 62.8696 48.3637C62.7924 48.205 62.7229 48.0463 62.6611 47.8807C62.6302 47.7979 62.5993 47.7082 62.5761 47.6254C62.5452 47.5426 62.5143 47.4599 62.4912 47.3702C62.3908 47.0321 62.3135 46.6802 62.2517 46.3284C62.19 45.9765 62.1513 45.6177 62.1282 45.2659C62.1204 45.0934 62.1204 44.9278 62.1204 44.7484C62.1282 44.569 62.1359 44.3896 62.1436 44.2103C62.1668 43.8515 62.2054 43.4858 62.2517 43.1202C62.3058 42.7614 62.3599 42.3957 62.4294 42.037C62.5684 41.3194 62.7461 40.6088 62.97 39.9189C63.0782 39.5739 63.2017 39.2289 63.3408 38.9047C63.6806 38.0905 64.1749 37.3454 64.7233 36.6348C65.2717 35.931 65.8432 35.2411 66.4456 34.5719C67.0095 33.944 67.5965 33.33 68.1834 32.7159L69.8363 31.0049C70.3924 30.4323 70.9408 29.8458 71.4814 29.2387C72.0221 28.6384 72.5473 28.0175 73.057 27.3689C73.559 26.7273 74.0379 26.0581 74.4859 25.3612L74.8103 24.8369L74.8875 24.6989L74.9261 24.6368L74.9647 24.5609L75.1269 24.2849C75.3277 23.9055 75.5131 23.5191 75.6753 23.1258C76.0074 22.3324 76.2546 21.5114 76.4013 20.6697C76.5558 19.828 76.6021 18.9655 76.5403 18.0962C76.5326 17.9858 76.5172 17.8823 76.5094 17.7719C76.494 17.6616 76.4863 17.5512 76.4631 17.4477C76.4477 17.3373 76.4322 17.2269 76.409 17.1234L76.3395 16.7991L76.3241 16.7163L76.3009 16.6336L76.2623 16.4749L76.216 16.3162C76.2005 16.261 76.1851 16.2127 76.1696 16.1575C76.131 16.0471 76.1001 15.9436 76.0615 15.8401L75.9379 15.5228C75.9225 15.4745 75.8993 15.4193 75.8761 15.371L75.8066 15.2192L75.7371 15.0605L75.6599 14.9087L75.5749 14.7569C75.5517 14.7086 75.5286 14.6603 75.4977 14.612L75.3277 14.3154C75.2968 14.2671 75.266 14.2188 75.2351 14.1705L75.1347 14.0256L75.042 13.8876L74.9416 13.7496L74.8334 13.6116C74.8025 13.5633 74.7716 13.515 74.733 13.4737L74.509 13.2046C74.4704 13.1632 74.4318 13.1218 74.3932 13.0804L74.2773 12.9493L74.1615 12.8251C74.1151 12.7837 74.0765 12.7423 74.0379 12.7009C73.9529 12.625 73.868 12.5422 73.783 12.4594L73.5204 12.2318C73.4355 12.1559 73.3428 12.0869 73.2501 12.011L73.1111 11.9075L73.0493 11.8523C73.0261 11.8385 72.9952 11.8178 72.9721 11.804C72.8794 11.735 72.779 11.6591 72.6786 11.597C72.5859 11.5349 72.4855 11.4659 72.3851 11.4038C71.9757 11.1555 71.5509 10.9416 71.1184 10.7553C70.6859 10.569 70.2456 10.4172 69.7899 10.2862C68.894 10.0378 67.9826 9.89289 67.0712 9.8308Z" fill="white"/>
</g>
</g>
</g>
<mask id="mask5_85_2895" style="mask-type:luminance" maskUnits="userSpaceOnUse" x="53" y="10" width="19" height="17">
<path d="M53.3853 10.6104H71.1804V26.5065H53.3853V10.6104Z" fill="white"/>
</mask>
<g mask="url(#mask5_85_2895)">
<mask id="mask6_85_2895" style="mask-type:luminance" maskUnits="userSpaceOnUse" x="53" y="0" width="25" height="52">
<path d="M75.0111 51.4476L53.501 50.6059L55.9648 0.654633L77.4749 1.50325L75.0111 51.4476Z" fill="white"/>
</mask>
<g mask="url(#mask6_85_2895)">
<mask id="mask7_85_2895" style="mask-type:luminance" maskUnits="userSpaceOnUse" x="53" y="0" width="25" height="52">
<path d="M75.0111 51.4476L53.501 50.6059L55.9648 0.654633L77.4749 1.50325L75.0111 51.4476Z" fill="white"/>
</mask>
<g mask="url(#mask7_85_2895)">
<path d="M54.7446 18.6481C54.7446 18.7585 54.7446 18.8689 54.7524 18.9793L54.7601 19.1449L54.7755 19.3105C54.7832 19.4209 54.7987 19.5312 54.8141 19.6416C54.8219 19.6968 54.8296 19.752 54.8373 19.8072C54.8528 19.8693 54.8605 19.9245 54.8759 19.9797C54.9686 20.4282 55.1231 20.8766 55.3316 21.3044C55.5479 21.7321 55.8259 22.1461 56.1503 22.5187C56.4824 22.8912 56.8532 23.2224 57.2548 23.5191C57.4556 23.664 57.6641 23.795 57.8804 23.9261C57.9113 23.9399 57.9345 23.9537 57.9576 23.9675L58.0426 24.0158L58.2048 24.0986C58.3052 24.1538 58.4133 24.2159 58.5292 24.2642L58.8613 24.416C58.9694 24.4643 59.0853 24.5126 59.1934 24.554C59.2552 24.5747 59.3093 24.6023 59.3633 24.623L59.541 24.6782C59.6568 24.7196 59.7727 24.761 59.8885 24.7955L60.2361 24.8989L60.3288 24.9196C60.3597 24.9265 60.3828 24.9334 60.4137 24.9403L60.5914 24.9886C60.8308 25.0438 61.0702 25.0852 61.3174 25.1335C61.4332 25.1542 61.5568 25.168 61.6804 25.1887L61.8658 25.2094C62.2133 25.2508 62.5686 25.2784 62.9239 25.2853C63.1788 25.2853 63.4414 25.2508 63.6962 25.2646C63.6962 25.2646 63.6885 25.2577 63.6962 25.2577C63.7658 25.2577 63.8353 25.2508 63.9048 25.2439C63.9357 25.2439 63.9666 25.2439 63.9975 25.237L64.0901 25.2301L64.2755 25.2094C64.5227 25.1818 64.7698 25.1335 65.017 25.0921C65.1405 25.0645 65.2641 25.03 65.3877 25.0024C65.4495 24.9886 65.5113 24.9748 65.5731 24.961L65.9284 24.8506C65.9901 24.8299 66.0519 24.8162 66.1137 24.7886L66.2836 24.7265L66.3763 24.6989L66.4613 24.6644C66.5694 24.6161 66.6853 24.5678 66.8011 24.5195C66.9092 24.4643 67.0251 24.416 67.1332 24.3608C67.2414 24.3056 67.3495 24.2504 67.4576 24.1883L67.6121 24.0986C67.6662 24.0641 67.7202 24.0296 67.7666 24.002L67.921 23.9054L68.0755 23.8019C68.1218 23.7674 68.1682 23.733 68.2223 23.6985L68.3613 23.5881C68.7475 23.2914 69.095 22.9602 69.3962 22.5946C69.4349 22.5532 69.4735 22.5049 69.5044 22.4566L69.6125 22.3117C69.6511 22.2703 69.682 22.2151 69.7129 22.1668L69.8056 22.0219C69.8751 21.9184 69.9292 21.8218 69.9832 21.7183C70.0373 21.6149 70.0914 21.5114 70.1377 21.401C70.184 21.2975 70.2304 21.1871 70.269 21.0767L70.3231 20.9111C70.3385 20.8559 70.3617 20.8007 70.3694 20.7455L70.408 20.5799C70.4235 20.5248 70.4389 20.4696 70.4466 20.4144L70.4698 20.2488C70.4775 20.1936 70.493 20.1315 70.493 20.0763C70.5393 19.6347 70.5162 19.1863 70.4157 18.7516C70.3231 18.317 70.1531 17.903 69.9137 17.5235C69.8596 17.4269 69.7824 17.3373 69.7206 17.2476L69.6666 17.1786C69.6511 17.1579 69.6357 17.1372 69.6125 17.1165L69.5044 16.9854C69.4812 16.9647 69.4657 16.944 69.4426 16.9233L69.3808 16.8681C69.3422 16.8267 69.3036 16.7853 69.2572 16.7508C69.18 16.6749 69.0796 16.599 68.9869 16.53C68.8865 16.461 68.7861 16.3989 68.6779 16.3437C68.5698 16.2886 68.454 16.2403 68.3381 16.2058C68.2145 16.1713 68.091 16.1437 67.9597 16.1368C67.8284 16.1299 67.7048 16.1437 67.5812 16.1713C67.5194 16.1851 67.4731 16.2334 67.4653 16.2955C67.4499 16.3713 67.5117 16.4472 67.6044 16.4541L67.6121 16.461C67.7048 16.4679 67.7897 16.4955 67.867 16.5231C67.9442 16.5576 68.0137 16.599 68.0832 16.6473C68.1527 16.7025 68.2145 16.7577 68.2686 16.8129C68.3304 16.875 68.3844 16.9371 68.4308 17.0061C68.4849 17.0751 68.5235 17.1441 68.5698 17.22C68.5853 17.2614 68.6084 17.2959 68.6316 17.3304L68.6625 17.3856C68.6702 17.4062 68.6779 17.4269 68.6857 17.4476C68.7552 17.5994 68.8092 17.7581 68.8556 17.9168C69.0178 18.5515 68.9637 19.207 68.7552 19.7934C68.7475 19.8348 68.732 19.8693 68.7166 19.9038L68.6702 20.0142C68.6548 20.0487 68.6393 20.0832 68.6239 20.1177L68.5698 20.2212C68.5312 20.2902 68.4926 20.3523 68.454 20.4213C68.4153 20.4834 68.369 20.5455 68.3304 20.6075L68.1836 20.7938C68.1296 20.8559 68.0832 20.918 68.0292 20.9732L67.9442 21.056C67.9133 21.0836 67.8901 21.1181 67.8592 21.1457L67.7743 21.2216C67.7434 21.2492 67.7125 21.2768 67.6816 21.3044C67.195 21.7252 66.608 22.0495 65.9747 22.2841C65.8975 22.3186 65.8125 22.3393 65.7353 22.3669C65.6503 22.3945 65.5731 22.4152 65.4881 22.4428L65.4263 22.4566L65.3645 22.4773L65.241 22.5049C65.2023 22.5187 65.1637 22.5256 65.1174 22.5325L64.9938 22.5532L64.8779 22.5808C64.8316 22.5877 64.793 22.5946 64.7466 22.6015L64.4995 22.636L64.2446 22.6567C64.206 22.6636 64.1597 22.6705 64.121 22.6705L63.9897 22.6774C63.3487 22.6981 62.7231 22.6981 62.1052 22.5325C62.1052 22.5394 62.1052 22.5394 62.1052 22.5394C62.0434 22.5256 61.9816 22.5187 61.9198 22.5049C61.7499 22.4635 61.58 22.429 61.4101 22.3807C61.2401 22.3393 61.078 22.2841 60.9158 22.2289C60.8694 22.222 60.8308 22.2013 60.7922 22.1875L60.6686 22.1461L60.545 22.0978C60.5064 22.084 60.4678 22.0702 60.4292 22.0495L60.1897 21.9598C60.1125 21.9184 60.0353 21.8839 59.958 21.8494C59.9194 21.8356 59.8808 21.8149 59.8422 21.7942L59.7341 21.739L59.6182 21.6838L59.5641 21.6562C59.5487 21.6493 59.5332 21.6356 59.5101 21.6287C59.4406 21.5873 59.371 21.5528 59.3015 21.5114C59.232 21.47 59.1625 21.4286 59.1007 21.3872C58.8381 21.2147 58.591 21.0353 58.3747 20.8352C58.1507 20.6282 57.9576 20.4144 57.78 20.1729C57.6101 19.9314 57.4633 19.6692 57.3397 19.3933C57.2162 19.1104 57.1235 18.8137 57.054 18.4963C56.9845 18.179 56.9536 17.8547 56.9381 17.5166C56.9227 17.1786 56.9381 16.8336 56.9767 16.4886C56.9845 16.3989 56.9922 16.3093 57.0076 16.2265L57.0463 15.9781L57.1003 15.7297C57.1235 15.6469 57.1467 15.5641 57.1698 15.4813C57.3629 14.8328 57.7105 14.2118 58.1816 13.6668C58.6528 13.1218 59.2552 12.6526 59.9271 12.2869C60.0662 12.211 60.2052 12.142 60.3442 12.0731C60.3519 11.6936 60.3288 11.321 60.2901 10.9485C59.958 11.0933 59.6414 11.2451 59.3324 11.4176C58.5678 11.8316 57.8495 12.3352 57.2239 12.9355C56.5983 13.5357 56.0731 14.2256 55.6792 14.9915L55.5402 15.2812L55.4089 15.571L55.293 15.8746L55.1926 16.1644C55.069 16.5576 54.9609 16.9578 54.8759 17.3718C54.7987 17.7857 54.7524 18.2135 54.7446 18.6481Z" fill="white"/>
</g>
</g>
</g>
<mask id="mask8_85_2895" style="mask-type:luminance" maskUnits="userSpaceOnUse" x="61" y="24" width="5" height="12">
<path d="M61.2939 24.7403H65.2484V35.3377H61.2939V24.7403Z" fill="white"/>
</mask>
<g mask="url(#mask8_85_2895)">
<mask id="mask9_85_2895" style="mask-type:luminance" maskUnits="userSpaceOnUse" x="53" y="0" width="25" height="52">
<path d="M75.0111 51.4477L53.501 50.606L55.9648 0.654663L77.4749 1.50328L75.0111 51.4477Z" fill="white"/>
</mask>
<g mask="url(#mask9_85_2895)">
<mask id="mask10_85_2895" style="mask-type:luminance" maskUnits="userSpaceOnUse" x="53" y="0" width="25" height="52">
<path d="M75.0111 51.4477L53.501 50.606L55.9648 0.654663L77.4749 1.50328L75.0111 51.4477Z" fill="white"/>
</mask>
<g mask="url(#mask10_85_2895)">
<path d="M62.9546 28.1555C62.9855 28.3417 63.0087 28.5349 63.0396 28.7212L63.1245 29.2801L63.2095 29.8458L63.3022 30.4047C63.364 30.7772 63.4258 31.1567 63.4876 31.5293L63.8737 33.7439C64.0359 33.5301 64.2058 33.3162 64.3758 33.1092C64.4993 32.9505 64.6306 32.7987 64.7465 32.6331C64.816 32.5297 64.8778 32.4262 64.9473 32.3158L64.7542 31.343C64.677 30.9704 64.6075 30.6047 64.5302 30.2322L64.4298 29.6733L64.3217 29.1214L64.229 28.5625C64.1904 28.3831 64.1595 28.1969 64.1286 28.0106L63.951 26.8998L63.7733 25.7752L63.7347 25.5199C63.7193 25.5199 63.7038 25.513 63.6884 25.513C63.3176 25.4647 62.9469 25.4785 62.5762 25.4923C62.6534 26.0029 62.7306 26.5203 62.8002 27.0309L62.9546 28.1555Z" fill="white"/>
</g>
</g>
</g>
<mask id="mask11_85_2895" style="mask-type:luminance" maskUnits="userSpaceOnUse" x="133" y="26" width="7" height="6">
<path d="M133.51 26.6169H139.248V31.7431H133.51V26.6169Z" fill="white"/>
</mask>
<g mask="url(#mask11_85_2895)">
<path d="M138.53 28.8591C138.53 29.1558 138.468 29.4456 138.337 29.7216C138.213 29.9975 138.028 30.239 137.796 30.446C137.557 30.6599 137.287 30.8186 136.978 30.9358C136.676 31.0462 136.352 31.1014 136.02 31.1014C135.688 31.1014 135.363 31.0462 135.054 30.9358C134.753 30.8186 134.475 30.6599 134.244 30.446C134.012 30.239 133.826 29.9975 133.703 29.7216C133.572 29.4456 133.51 29.1558 133.51 28.8591C133.51 28.5625 133.572 28.2796 133.703 28.0036C133.826 27.7276 134.012 27.4862 134.244 27.2723C134.475 27.0653 134.753 26.8997 135.054 26.7893C135.363 26.672 135.688 26.6169 136.02 26.6169C136.352 26.6169 136.676 26.672 136.978 26.7893C137.287 26.8997 137.557 27.0653 137.796 27.2723C138.028 27.4862 138.213 27.7276 138.337 28.0036C138.468 28.2796 138.53 28.5625 138.53 28.8591Z" fill="#FFBB02"/>
</g>
<mask id="mask12_85_2895" style="mask-type:luminance" maskUnits="userSpaceOnUse" x="152" y="26" width="7" height="6">
<path d="M152.888 26.6169H158.179V31.7431H152.888V26.6169Z" fill="white"/>
</mask>
<g mask="url(#mask12_85_2895)">
<path d="M157.916 28.8591C157.916 29.1558 157.847 29.4456 157.723 29.7216C157.592 29.9975 157.414 30.239 157.175 30.446C156.943 30.6599 156.673 30.8186 156.364 30.9358C156.055 31.0462 155.738 31.1014 155.406 31.1014C155.066 31.1014 154.75 31.0462 154.441 30.9358C154.132 30.8186 153.861 30.6599 153.63 30.446C153.39 30.239 153.213 29.9975 153.081 29.7216C152.958 29.4456 152.888 29.1558 152.888 28.8591C152.888 28.5625 152.958 28.2796 153.081 28.0036C153.213 27.7276 153.39 27.4862 153.63 27.2723C153.861 27.0653 154.132 26.8997 154.441 26.7893C154.75 26.672 155.066 26.6169 155.406 26.6169C155.738 26.6169 156.055 26.672 156.364 26.7893C156.673 26.8997 156.943 27.0653 157.175 27.2723C157.414 27.4862 157.592 27.7276 157.723 28.0036C157.847 28.2796 157.916 28.5625 157.916 28.8591Z" fill="#145C9E"/>
</g>
<mask id="mask13_85_2895" style="mask-type:luminance" maskUnits="userSpaceOnUse" x="117" y="26" width="6" height="6">
<path d="M117.545 26.6169H122.588V31.7431H117.545V26.6169Z" fill="white"/>
</mask>
<g mask="url(#mask13_85_2895)">
<path d="M122.565 28.8591C122.565 29.1558 122.503 29.4456 122.372 29.7216C122.249 29.9975 122.063 30.239 121.832 30.446C121.592 30.6599 121.322 30.8186 121.013 30.9358C120.712 31.0462 120.387 31.1014 120.055 31.1014C119.723 31.1014 119.399 31.0462 119.097 30.9358C118.788 30.8186 118.518 30.6599 118.279 30.446C118.047 30.239 117.862 29.9975 117.738 29.7216C117.607 29.4456 117.545 29.1558 117.545 28.8591C117.545 28.5625 117.607 28.2796 117.738 28.0036C117.862 27.7276 118.047 27.4862 118.279 27.2723C118.518 27.0653 118.788 26.8997 119.097 26.7893C119.399 26.672 119.723 26.6169 120.055 26.6169C120.387 26.6169 120.712 26.672 121.013 26.7893C121.322 26.8997 121.592 27.0653 121.832 27.2723C122.063 27.4862 122.249 27.7276 122.372 28.0036C122.503 28.2796 122.565 28.5625 122.565 28.8591Z" fill="#DCC6BC"/>
</g>
<mask id="mask14_85_2895" style="mask-type:luminance" maskUnits="userSpaceOnUse" x="94" y="25" width="7" height="6">
<path d="M94.8765 25.651H100.615V30.7772H94.8765V25.651Z" fill="white"/>
</mask>
<g mask="url(#mask14_85_2895)">
<path d="M99.8968 27.8933C99.8968 28.19 99.835 28.4797 99.7114 28.7557C99.5801 29.0317 99.4025 29.2732 99.163 29.4801C98.9313 29.694 98.661 29.8527 98.3521 29.97C98.0431 30.0804 97.7187 30.1356 97.3866 30.1356C97.0545 30.1356 96.7378 30.0804 96.4289 29.97C96.12 29.8527 95.8496 29.694 95.6102 29.4801C95.3785 29.2732 95.1931 29.0317 95.0696 28.7557C94.9383 28.4797 94.8765 28.19 94.8765 27.8933C94.8765 27.5966 94.9383 27.3137 95.0696 27.0378C95.1931 26.7618 95.3785 26.5203 95.6102 26.3064C95.8496 26.0995 96.12 25.9339 96.4289 25.8235C96.7378 25.7062 97.0545 25.651 97.3866 25.651C97.7187 25.651 98.0431 25.7062 98.3521 25.8235C98.661 25.9339 98.9313 26.0995 99.163 26.3064C99.4025 26.5203 99.5801 26.7618 99.7114 27.0378C99.835 27.3137 99.8968 27.5966 99.8968 27.8933Z" fill="#0B4F6C"/>
</g>
</svg>
